<svg width="50" height="50" viewBox="0 0 50 50" fill="none" xmlns="http://www.w3.org/2000/svg">
<path d="M5.875 38.5C5.875 35.318 5.875 33.727 6.86351 32.7385C7.85203 31.75 9.44302 31.75 12.625 31.75H13.75C15.8713 31.75 16.932 31.75 17.591 32.409C18.25 33.068 18.25 34.1287 18.25 36.25V47.5H5.875V38.5Z" stroke="#6E777F" stroke-width="3.375" stroke-linecap="round" stroke-linejoin="round"/>
<path d="M31.75 40.75C31.75 38.6287 31.75 37.568 32.409 36.909C33.068 36.25 34.1287 36.25 36.25 36.25H37.375C40.557 36.25 42.148 36.25 43.1365 37.2385C44.125 38.227 44.125 39.818 44.125 43V47.5H31.75V40.75Z" stroke="#6E777F" stroke-width="3.375" stroke-linecap="round" stroke-linejoin="round"/>
<path d="M2.5 47.5H47.5" stroke="#6E777F" stroke-width="3.375" stroke-linecap="round" stroke-linejoin="round"/>
<path d="M18.25 34C18.25 30.818 18.25 29.227 19.2385 28.2385C20.227 27.25 21.818 27.25 25 27.25C28.182 27.25 29.773 27.25 30.7615 28.2385C31.75 29.227 31.75 30.818 31.75 34V47.5H18.25V34Z" stroke="#6E777F" stroke-width="3.375" stroke-linecap="round" stroke-linejoin="round"/>
<path d="M26.5549 3.79976L28.1387 6.99359C28.3547 7.43818 28.9306 7.86463 29.4166 7.94629L32.2872 8.42718C34.123 8.73567 34.555 10.0785 33.2321 11.4032L31.0004 13.6534C30.6224 14.0345 30.4154 14.7695 30.5324 15.2957L31.1714 18.0812C31.6753 20.2861 30.5144 21.139 28.5796 19.9867L25.8889 18.3807C25.403 18.0903 24.6021 18.0903 24.1071 18.3807L21.4164 19.9867C19.4907 21.139 18.3208 20.277 18.8247 18.0812L19.4637 15.2957C19.5806 14.7695 19.3737 14.0345 18.9957 13.6534L16.764 11.4032C15.4501 10.0785 15.8731 8.73567 17.7089 8.42718L20.5795 7.94629C21.0565 7.86463 21.6324 7.43818 21.8484 6.99359L23.4322 3.79976C24.2961 2.06675 25.7 2.06675 26.5549 3.79976Z" stroke="#6E777F" stroke-width="3.375" stroke-linecap="round" stroke-linejoin="round"/>
</svg>
