<svg width="50" height="42" viewBox="0 0 50 42" fill="none" xmlns="http://www.w3.org/2000/svg">
<path d="M27.25 28.3125C28.182 28.3125 28.9375 29.068 28.9375 30C28.9375 30.932 28.182 31.6875 27.25 31.6875H21.625C20.693 31.6875 19.9375 30.932 19.9375 30C19.9375 29.068 20.693 28.3125 21.625 28.3125H27.25ZM39.625 28.3125C40.557 28.3125 41.3125 29.068 41.3125 30C41.3125 30.932 40.557 31.6875 39.625 31.6875H34C33.068 31.6875 32.3125 30.932 32.3125 30C32.3125 29.068 33.068 28.3125 34 28.3125H39.625ZM27.25 19.3125C28.182 19.3125 28.9375 20.068 28.9375 21C28.9375 21.932 28.182 22.6875 27.25 22.6875H21.625C20.693 22.6875 19.9375 21.932 19.9375 21C19.9375 20.068 20.693 19.3125 21.625 19.3125H27.25ZM39.625 19.3125C40.557 19.3125 41.3125 20.068 41.3125 21C41.3125 21.932 40.557 22.6875 39.625 22.6875H34C33.068 22.6875 32.3125 21.932 32.3125 21C32.3125 20.068 33.068 19.3125 34 19.3125H39.625ZM39.625 10.3125C40.557 10.3125 41.3125 11.068 41.3125 12C41.3125 12.932 40.557 13.6875 39.625 13.6875H21.625C20.693 13.6875 19.9375 12.932 19.9375 12C19.9375 11.068 20.693 10.3125 21.625 10.3125H39.625Z" fill="black"/>
<path d="M0.812505 34.5V19.875C0.812505 17.8016 0.808874 16.0768 0.992193 14.7129C1.1821 13.3004 1.6002 12.0248 2.62501 11C3.64981 9.9752 4.92536 9.5571 6.3379 9.36719C7.70181 9.18387 9.42663 9.18751 11.5 9.18751H13.75L13.9229 9.19629C14.7736 9.28286 15.4375 10.0014 15.4375 10.875V34.5C15.4375 38.5386 12.1636 41.8125 8.12501 41.8125C4.08642 41.8125 0.812505 38.5386 0.812505 34.5ZM4.18751 34.5C4.18751 36.6746 5.95038 38.4375 8.12501 38.4375C10.2996 38.4375 12.0625 36.6746 12.0625 34.5V12.5625H11.5C9.33099 12.5625 7.87395 12.5658 6.78711 12.7119C5.74883 12.8515 5.30494 13.0935 5.01172 13.3867C4.71851 13.6799 4.47651 14.1238 4.33692 15.1621C4.1908 16.2489 4.18751 17.706 4.18751 19.875V34.5Z" fill="black"/>
<path d="M12.0625 10.8751C12.0625 8.89148 12.0477 7.56852 12.3496 6.44152L12.4277 6.17003C13.2733 3.38884 15.4958 1.23051 18.3164 0.474722L18.5303 0.421987C19.6115 0.174824 20.8904 0.187612 22.75 0.187612H34C37.1343 0.187612 39.6551 0.183571 41.6318 0.449331C43.6569 0.721637 45.3616 1.30505 46.7158 2.65929L46.9609 2.9171C48.1418 4.22771 48.6705 5.84473 48.9258 7.74328C49.1915 9.71998 49.1875 12.2408 49.1875 15.3751V26.6251C49.1875 29.7594 49.1915 32.2802 48.9258 34.2569C48.6705 36.1555 48.1418 37.7725 46.9609 39.0831L46.7158 39.3409C45.3616 40.6952 43.6569 41.2786 41.6318 41.5509C39.6551 41.8167 37.1343 41.8126 34 41.8126H8.125C7.19302 41.8126 6.4375 41.0571 6.4375 40.1251C6.4375 39.1931 7.19302 38.4376 8.125 38.4376C10.2996 38.4376 12.0625 36.6747 12.0625 34.5001V10.8751ZM15.4375 34.5001C15.4375 35.9504 15.0133 37.3008 14.2852 38.4376H34C37.2297 38.4376 39.4821 38.4337 41.1816 38.2052C42.8326 37.9832 43.7074 37.5779 44.3301 36.9552L44.4443 36.8351C45.0028 36.2199 45.372 35.3544 45.5801 33.8068C45.8086 32.1072 45.8125 29.8548 45.8125 26.6251V15.3751C45.8125 12.1455 45.8086 9.89301 45.5801 8.19347C45.372 6.64579 45.0028 5.78034 44.4443 5.16515L44.3301 5.04503C43.7074 4.42232 42.8326 4.017 41.1816 3.79503C39.4821 3.56654 37.2297 3.56261 34 3.56261H22.75C20.8241 3.56261 19.9943 3.57411 19.4219 3.68273L19.1895 3.73546C17.5516 4.17444 16.2499 5.40107 15.708 6.9923L15.6104 7.31457C15.4523 7.90425 15.4375 8.67403 15.4375 10.8751V34.5001Z" fill="black"/>
</svg>
