<svg width="48" height="48" viewBox="0 0 48 48" fill="none" xmlns="http://www.w3.org/2000/svg">
<path d="M43.6875 24C43.6875 18.9144 43.6841 15.2698 43.3115 12.498C42.9454 9.77482 42.2511 8.14759 41.0518 6.94824C39.8524 5.74889 38.2252 5.05461 35.502 4.68848C32.7302 4.31586 29.0857 4.3125 24 4.3125C18.9144 4.3125 15.2698 4.31586 12.498 4.68848C9.77482 5.05461 8.14759 5.74889 6.94824 6.94824C5.74889 8.14759 5.05461 9.77482 4.68848 12.498C4.31586 15.2698 4.3125 18.9144 4.3125 24C4.3125 29.0857 4.31586 32.7302 4.68848 35.502C5.05461 38.2252 5.74889 39.8524 6.94824 41.0518C8.14759 42.2511 9.77482 42.9454 12.498 43.3115C15.2698 43.6841 18.9144 43.6875 24 43.6875C29.0857 43.6875 32.7302 43.6841 35.502 43.3115C38.2252 42.9454 39.8524 42.2511 41.0518 41.0518C42.2511 39.8524 42.9454 38.2252 43.3115 35.502C43.6841 32.7302 43.6875 29.0857 43.6875 24ZM47.0625 24C47.0625 28.9904 47.0662 32.9032 46.6562 35.9521C46.2398 39.0495 45.3684 41.5066 43.4375 43.4375C41.5066 45.3684 39.0495 46.2398 35.9521 46.6562C32.9032 47.0662 28.9904 47.0625 24 47.0625C19.0096 47.0625 15.0968 47.0662 12.0479 46.6562C8.95046 46.2398 6.49341 45.3684 4.5625 43.4375C2.63159 41.5066 1.76021 39.0495 1.34375 35.9521C0.933832 32.9032 0.937501 28.9904 0.937501 24C0.937501 19.0096 0.933832 15.0968 1.34375 12.0479C1.76021 8.95046 2.63159 6.49341 4.5625 4.5625C6.49341 2.63159 8.95046 1.76021 12.0479 1.34375C15.0968 0.933832 19.0096 0.937501 24 0.937501C28.9904 0.937501 32.9032 0.933832 35.9521 1.34375C39.0495 1.76021 41.5066 2.63159 43.4375 4.5625C45.3684 6.49341 46.2398 8.95046 46.6562 12.0479C47.0662 15.0968 47.0625 19.0096 47.0625 24Z" fill="#6E777F"/>
<path d="M12.6543 34.085C18.4416 28.0235 29.0269 27.606 35.081 33.8057L35.3662 34.1064L35.4765 34.2393C35.9895 34.9235 35.911 35.8991 35.2685 36.4912C34.6261 37.0831 33.6479 37.0815 33.0078 36.5146L32.8838 36.3936L32.665 36.1631C28.013 31.4055 19.637 31.6589 15.0957 36.415C14.4522 37.089 13.384 37.1141 12.7099 36.4707C12.0359 35.8272 12.0109 34.7591 12.6543 34.085ZM27.9267 18.375C27.9267 16.2026 26.1617 14.4375 23.9804 14.4375C21.7993 14.4378 20.0351 16.2028 20.0351 18.375C20.0351 20.5472 21.7993 22.3122 23.9804 22.3125C26.1617 22.3125 27.9267 20.5474 27.9267 18.375ZM31.3017 18.375C31.3017 22.4158 28.0212 25.6875 23.9804 25.6875C19.9399 25.6872 16.6601 22.4157 16.6601 18.375C16.6601 14.3343 19.9399 11.0628 23.9804 11.0625C28.0212 11.0625 31.3017 14.3342 31.3017 18.375Z" fill="#6E777F"/>
</svg>
