<svg width="48" height="48" viewBox="0 0 48 48" fill="none" xmlns="http://www.w3.org/2000/svg">
<path d="M2.625 24C2.625 13.9237 2.625 8.88559 5.7553 5.7553C8.88559 2.625 13.9237 2.625 24 2.625C34.0763 2.625 39.1144 2.625 42.2447 5.7553C45.375 8.88559 45.375 13.9237 45.375 24C45.375 34.0763 45.375 39.1144 42.2447 42.2447C39.1144 45.375 34.0763 45.375 24 45.375C13.9237 45.375 8.88559 45.375 5.7553 42.2447C2.625 39.1144 2.625 34.0763 2.625 24Z" stroke="#6E777F" stroke-width="3.375"/>
<path d="M13.875 35.25C19.1213 29.7551 28.8223 29.4964 34.125 35.25M29.614 18.375C29.614 21.4816 27.092 24 23.9809 24C20.8699 24 18.3479 21.4816 18.3479 18.375C18.3479 15.2684 20.8699 12.75 23.9809 12.75C27.092 12.75 29.614 15.2684 29.614 18.375Z" stroke="#6E777F" stroke-width="3.375" stroke-linecap="round"/>
</svg>
