<svg width="50" height="49" viewBox="0 0 50 49" fill="none" xmlns="http://www.w3.org/2000/svg">
<path d="M16.3975 32.8496C16.3965 32.8487 16.3969 32.8482 16.3975 32.8486C16.3965 32.8481 16.3947 32.8478 16.3926 32.8467C16.3883 32.8444 16.3804 32.8406 16.3691 32.8359C16.3202 32.8158 16.2113 32.7812 15.9941 32.752C15.52 32.6882 14.8584 32.6846 13.75 32.6846H12.625C10.9863 32.6846 9.92697 32.688 9.14649 32.793C8.41461 32.8914 8.1851 33.0503 8.05665 33.1787C7.92819 33.3072 7.76931 33.5367 7.67091 34.2686C7.56597 35.049 7.56251 36.1084 7.56251 37.7471V45.0596H16.5625V35.4971C16.5625 34.3887 16.5589 33.7271 16.4951 33.2529C16.4659 33.0358 16.4313 32.9269 16.4111 32.8779C16.4065 32.8667 16.4027 32.8588 16.4004 32.8545L16.3975 32.8496ZM19.9375 46.7471C19.9375 47.6791 19.182 48.4346 18.25 48.4346H5.87501C4.94303 48.4346 4.18751 47.6791 4.18751 46.7471V37.7471C4.18751 36.204 4.18404 34.8769 4.32618 33.8193C4.4749 32.7132 4.80987 31.6521 5.66993 30.792C6.52998 29.9319 7.59109 29.597 8.69727 29.4483C9.75485 29.3061 11.0819 29.3096 12.625 29.3096H13.75C14.7628 29.3096 15.6921 29.3063 16.4434 29.4072C17.2432 29.5148 18.0889 29.7676 18.7842 30.4629C19.4795 31.1582 19.7323 32.0039 19.8399 32.8037C19.9408 33.555 19.9375 34.4843 19.9375 35.4971V46.7471Z" fill="#6E777F"/>
<path d="M30.0625 39.9971C30.0625 38.9843 30.0592 38.055 30.1602 37.3037C30.2677 36.5039 30.5205 35.6582 31.2158 34.9629C31.9111 34.2676 32.7568 34.0148 33.5567 33.9072C34.3079 33.8063 35.2372 33.8096 36.25 33.8096H37.375C38.9181 33.8096 40.2452 33.8061 41.3027 33.9483C42.4089 34.097 43.47 34.4319 44.3301 35.292C45.1901 36.1521 45.5251 37.2132 45.6738 38.3193C45.816 39.3769 45.8125 40.704 45.8125 42.2471V46.7471C45.8125 47.6791 45.057 48.4346 44.125 48.4346H31.75C30.818 48.4346 30.0625 47.6791 30.0625 46.7471V39.9971ZM33.4375 45.0596H42.4375V42.2471C42.4375 40.6084 42.434 39.549 42.3291 38.7686C42.2307 38.0367 42.0718 37.8072 41.9434 37.6787C41.8149 37.5503 41.5854 37.3914 40.8535 37.293C40.073 37.188 39.0137 37.1846 37.375 37.1846H36.25C35.1416 37.1846 34.48 37.1882 34.0059 37.252C33.7887 37.2812 33.6799 37.3158 33.6309 37.3359C33.6196 37.3406 33.6118 37.3444 33.6074 37.3467C33.6053 37.3478 33.6035 37.3481 33.6026 37.3486C33.6031 37.3482 33.6035 37.3487 33.6026 37.3496C33.6016 37.3506 33.6011 37.3502 33.6016 37.3496V37.3486C33.601 37.3495 33.601 37.3518 33.5996 37.3545C33.5974 37.3588 33.5935 37.3667 33.5889 37.3779C33.5687 37.4269 33.5341 37.5358 33.5049 37.7529C33.4412 38.2271 33.4375 38.8887 33.4375 39.9971V45.0596Z" fill="#6E777F"/>
<path d="M47.5 45.0596C48.432 45.0596 49.1875 45.8151 49.1875 46.7471C49.1875 47.6791 48.432 48.4346 47.5 48.4346H2.5C1.56802 48.4346 0.8125 47.6791 0.8125 46.7471C0.8125 45.8151 1.56802 45.0596 2.5 45.0596H47.5Z" fill="#6E777F"/>
<path d="M30.0625 33.2471C30.0625 31.6084 30.059 30.549 29.9541 29.7686C29.8557 29.0367 29.6968 28.8072 29.5684 28.6787C29.4399 28.5503 29.2104 28.3914 28.4785 28.293C27.698 28.188 26.6387 28.1846 25 28.1846C23.3613 28.1846 22.302 28.188 21.5215 28.293C20.7896 28.3914 20.5601 28.5503 20.4316 28.6787C20.3032 28.8072 20.1443 29.0367 20.0459 29.7686C19.941 30.549 19.9375 31.6084 19.9375 33.2471V45.0596H30.0625V33.2471ZM33.4375 46.7471C33.4375 47.6791 32.682 48.4346 31.75 48.4346H18.25C17.318 48.4346 16.5625 47.6791 16.5625 46.7471V33.2471C16.5625 31.704 16.559 30.3769 16.7012 29.3193C16.8499 28.2132 17.1849 27.1521 18.0449 26.292C18.905 25.4319 19.9661 25.097 21.0723 24.9482C22.1298 24.8061 23.4569 24.8096 25 24.8096C26.5431 24.8096 27.8702 24.8061 28.9277 24.9482C30.0339 25.097 31.095 25.4319 31.9551 26.292C32.8151 27.1521 33.1501 28.2132 33.2988 29.3193C33.441 30.3769 33.4375 31.704 33.4375 33.2471V46.7471Z" fill="#6E777F"/>
<path d="M24.9971 0.0595703C26.5094 0.0596455 27.5223 1.19307 28.0684 2.2998L29.6319 5.4541C29.6357 5.45804 29.6406 5.46334 29.6465 5.46875C29.6572 5.47846 29.6698 5.48871 29.6836 5.49902C29.6976 5.50945 29.7118 5.51867 29.7246 5.52637C29.7322 5.53089 29.7388 5.53432 29.7442 5.53711L32.5664 6.00977L32.7959 6.05371C33.9443 6.29872 35.1325 6.9535 35.5518 8.26855C35.998 9.66809 35.3009 10.9636 34.4297 11.8379L34.4307 11.8389L32.2325 14.0537C32.2247 14.0694 32.2135 14.0948 32.2041 14.1279C32.194 14.1636 32.189 14.1942 32.1875 14.2139L32.8164 16.9512L32.8662 17.1904C33.098 18.4057 33.0431 19.9776 31.7891 20.8994C30.4444 21.8877 28.8076 21.3338 27.7159 20.6836L27.7149 20.6826L25.0684 19.1025C25.0635 19.1017 25.0576 19.1014 25.0508 19.1006C25.0362 19.0989 25.0188 19.0977 25.001 19.0977C24.9834 19.0977 24.9664 19.0989 24.9512 19.1006C24.9411 19.1017 24.9324 19.1022 24.9258 19.1035L22.2823 20.6807L22.2832 20.6816C21.1877 21.3372 19.5522 21.8837 18.209 20.8955C16.875 19.9137 16.8941 18.1962 17.1797 16.9512L17.8076 14.2139C17.8061 14.1942 17.8021 14.1636 17.792 14.1279C17.7825 14.0945 17.7705 14.0694 17.7627 14.0537L15.5655 11.8389C14.6987 10.9649 14.0036 9.66923 14.4463 8.27148C14.891 6.86751 16.2117 6.21438 17.4287 6.00977L20.2422 5.53809C20.2472 5.53544 20.2541 5.53335 20.2608 5.5293C20.2736 5.52155 20.2877 5.5125 20.3018 5.50195C20.316 5.49134 20.3289 5.47977 20.3399 5.46973C20.3461 5.46398 20.3505 5.45823 20.3545 5.4541L21.92 2.29688L21.9219 2.29395L22.0303 2.08691C22.6009 1.05273 23.5819 0.0595703 24.9971 0.0595703ZM24.9434 3.7959L24.9444 3.79688L23.3604 6.99023L23.3594 6.98926C23.1016 7.5137 22.6988 7.92362 22.3223 8.20508C21.9434 8.48827 21.4361 8.75854 20.8643 8.85645L17.9873 9.33789L17.9883 9.33887C17.9458 9.34601 17.9071 9.35521 17.8711 9.36328C17.8981 9.39402 17.9278 9.42743 17.9619 9.46191L20.1944 11.7119L20.3506 11.8838C20.6982 12.2946 20.9165 12.7745 21.0391 13.2061C21.1795 13.7005 21.2451 14.3077 21.1114 14.9092L21.1084 14.9199L20.4698 17.7061C20.4587 17.7542 20.4507 17.8002 20.4424 17.8438C20.4763 17.825 20.5133 17.808 20.5498 17.7861L20.5518 17.7852L23.2422 16.1787L23.253 16.1719L23.4688 16.0576C23.9768 15.8129 24.5236 15.7227 25.001 15.7227C25.5453 15.7227 26.187 15.8394 26.7549 16.1787L29.4424 17.7842C29.4798 17.8064 29.5181 17.8247 29.5528 17.8438C29.5445 17.8003 29.5374 17.7541 29.5264 17.7061L28.8877 14.9199L28.8848 14.9092C28.7511 14.3077 28.8167 13.7005 28.9571 13.2061C29.0971 12.7129 29.3614 12.156 29.8018 11.7119L32.0342 9.46191L32.0381 9.45801L32.1241 9.36328C32.0883 9.35529 32.0499 9.34594 32.0078 9.33887L29.1377 8.85742C28.5631 8.76082 28.052 8.49199 27.669 8.20703C27.2892 7.92444 26.885 7.5143 26.627 6.98926L25.043 3.79688L25.041 3.79297C25.0256 3.76163 25.0081 3.73351 24.9932 3.70605C24.9776 3.73432 24.9596 3.7635 24.9434 3.7959Z" fill="#6E777F"/>
</svg>
