<svg width="56" height="14" viewBox="0 0 56 14" fill="none" xmlns="http://www.w3.org/2000/svg">
<path d="M2.34994 2.97954C2.35973 3.25067 2.35989 3.53082 2.35042 3.82C2.32964 4.45433 2.23301 5.40834 2.06054 6.68204C1.88807 7.95575 1.79114 8.91909 1.76975 9.57207C1.7618 9.81461 1.75867 10.0526 1.76036 10.2861C1.66785 10.5446 1.48182 10.6646 1.20227 10.6461C0.801766 10.6143 0.588204 10.4345 0.561588 10.1068C0.534972 9.77908 0.527624 9.43332 0.539544 9.06952C0.560327 8.43519 0.665975 7.49081 0.856489 6.23638C1.05633 4.98225 1.16649 4.04269 1.18697 3.41769C1.19492 3.17515 1.19338 2.93697 1.18237 2.70315C1.28146 2.52897 1.44294 2.44555 1.66682 2.45288C1.84406 2.45869 2.01962 2.5158 2.19349 2.62422C2.23172 2.59746 2.26017 2.58438 2.27882 2.585C2.30681 2.58591 2.31927 2.63301 2.31622 2.7263C2.30322 2.83793 2.30108 2.90323 2.3098 2.92219C2.31821 2.95048 2.33159 2.9696 2.34994 2.97954ZM8.68132 1.78623C8.50977 3.03194 8.34273 4.28248 8.1802 5.53783C7.97272 7.02517 7.85262 8.2679 7.81992 9.26603C7.80922 9.59252 7.80801 9.91466 7.81627 10.2324C7.82071 10.382 7.76046 10.5108 7.63552 10.6187C7.51992 10.727 7.38749 10.7787 7.23823 10.7738C6.94906 10.7643 6.71294 10.5605 6.52988 10.1623C5.97107 8.97667 5.28937 7.12402 4.48479 4.60432C4.46796 4.54774 4.44556 4.51899 4.41757 4.51807C4.35228 4.51593 4.30816 4.57985 4.28522 4.70984C4.08294 6.03859 3.95765 7.43991 3.90936 8.91378C3.88613 9.62274 3.8811 10.3463 3.89427 11.0845C3.89473 11.3553 3.80933 11.5393 3.63806 11.6364C3.57062 11.6995 3.49959 11.7299 3.42496 11.7274C3.35966 11.7253 3.27662 11.6946 3.17585 11.6352C3.03806 11.5653 2.95082 11.5205 2.91411 11.5006C2.79407 11.4593 2.72311 11.3449 2.70124 11.1574C2.6968 11.0079 2.69251 10.8536 2.68838 10.6948C2.67751 10.1715 2.6814 9.62529 2.70004 9.05626C2.73244 8.06746 2.82891 6.83329 2.98944 5.35375C3.24064 3.1021 3.37955 1.85532 3.40615 1.61339C3.4222 1.40847 3.59814 1.31152 3.93396 1.32252C4.09315 1.30906 4.32254 1.4333 4.62212 1.69525C4.90198 2.27406 5.2402 3.20964 5.63675 4.50198C6.01649 5.73775 6.36854 6.67845 6.69291 7.32408C6.87348 6.088 7.15413 4.22019 7.53485 1.72065C7.56895 1.535 7.70727 1.44615 7.9498 1.45409C8.03376 1.45685 8.13125 1.47405 8.24227 1.5057C8.3903 1.5479 8.47816 1.57413 8.50584 1.58437C8.5979 1.62474 8.65639 1.69203 8.68132 1.78623ZM11.9396 1.90699C11.9335 2.09356 11.7929 2.25237 11.5178 2.38343C11.442 2.4183 11.3625 2.42037 11.2795 2.38963C11.1501 2.34804 11.0808 2.32709 11.0714 2.32679C11.0155 2.32495 10.9586 2.3511 10.9008 2.40524C10.3805 2.89246 10.1085 3.49988 10.0847 4.22749C10.0758 4.49801 10.1095 4.75125 10.1858 4.98721C10.2198 5.09105 10.5506 5.82561 11.1782 7.19089C11.5966 8.10108 11.7956 8.86867 11.7751 9.49367C11.7583 10.0067 11.6162 10.497 11.3487 10.9645C11.2596 11.1203 11.043 11.3187 10.6989 11.5595C10.422 11.7466 10.1762 11.8366 9.96165 11.8295C9.8777 11.8268 9.79887 11.8102 9.72516 11.7798C9.44928 11.6493 9.3144 11.4908 9.32051 11.3043C9.32418 11.1923 9.39857 11.0594 9.54369 10.9054C9.58253 10.8599 9.67207 10.8349 9.8123 10.8301C9.95253 10.8254 10.0476 10.7725 10.0977 10.6714C10.307 10.2673 10.4187 9.85078 10.4328 9.42168C10.4526 8.81533 10.1782 7.92854 9.60943 6.76129C9.05032 5.58501 8.78207 4.65173 8.80469 3.96143C8.82333 3.39241 8.95193 2.88768 9.19048 2.44726C9.45915 1.94245 9.83037 1.58575 10.3041 1.37715C10.522 1.28157 10.7336 1.23714 10.9388 1.24386C11.3306 1.2567 11.6209 1.3736 11.8098 1.59457C11.8997 1.70024 11.943 1.80438 11.9396 1.90699ZM13.96 3.35993C13.9698 3.63106 13.9699 3.91122 13.9604 4.2004C13.9397 4.83472 13.843 5.78874 13.6706 7.06244C13.4981 8.33614 13.4012 9.29948 13.3798 9.95247C13.3718 10.195 13.3687 10.433 13.3704 10.6665C13.2779 10.925 13.0918 11.045 12.8123 11.0265C12.4118 10.9947 12.1982 10.8149 12.1716 10.4872C12.145 10.1595 12.1376 9.81372 12.1496 9.44991C12.1703 8.81558 12.276 7.8712 12.4665 6.61677C12.6664 5.36264 12.7765 4.42308 12.797 3.79808C12.8049 3.55554 12.8034 3.31737 12.7924 3.08355C12.8915 2.90936 13.053 2.82594 13.2768 2.83328C13.4541 2.83908 13.6296 2.8962 13.8035 3.00461C13.8417 2.97785 13.8702 2.96478 13.8888 2.96539C13.9168 2.9663 13.9293 3.0134 13.9262 3.10669C13.9132 3.21832 13.9111 3.28362 13.9198 3.30258C13.9282 3.33087 13.9416 3.34999 13.96 3.35993ZM18.2398 7.4923C18.1395 7.70379 18.0439 7.91544 17.9529 8.12724C17.8327 8.37544 17.7049 8.57202 17.5694 8.717C17.2683 9.07133 16.9673 9.42099 16.6665 9.766C16.3073 10.1838 15.9851 10.4721 15.6997 10.6308C15.6028 10.7397 15.4963 10.8529 15.3804 10.9705C15.2645 11.0881 15.1506 11.1451 15.0386 11.1414C14.9827 11.1396 14.9178 11.1235 14.8441 11.093C14.7704 11.0626 14.6875 11.0272 14.5955 10.9868C14.5127 10.9468 14.4541 10.8841 14.4195 10.799C14.4044 10.4063 14.4041 9.98603 14.4188 9.53827C14.4338 9.08118 14.4747 8.40082 14.5417 7.4972C14.6087 6.59357 14.6496 5.91322 14.6646 5.45613C14.6845 4.84979 14.6793 4.29399 14.6492 3.78873C14.6402 3.77909 14.5411 3.66846 14.3519 3.45682C14.2346 3.33157 14.1776 3.21765 14.181 3.11504C14.1825 3.06839 14.1934 3.02206 14.2136 2.97603C14.2639 2.86562 14.3686 2.80368 14.5278 2.79022C14.6497 2.77554 14.7714 2.76552 14.893 2.76016C15.6711 2.95374 16.4776 3.41907 17.3126 4.15614C17.5304 4.35004 17.7058 4.5519 17.839 4.76171C18.2651 5.43869 18.4687 6.06636 18.4497 6.64471C18.4399 6.94322 18.37 7.22575 18.2398 7.4923ZM17.2814 5.96209C17.2167 5.37166 16.7346 4.83758 15.8351 4.35987C15.7188 5.91556 15.646 7.56606 15.6169 9.31138C16.7055 8.29181 17.2654 7.30629 17.2966 6.3548C17.3009 6.2242 17.2958 6.0933 17.2814 5.96209ZM23.5855 3.75935C23.2357 3.88796 22.722 4.03455 22.0443 4.19911C21.3665 4.36367 20.8528 4.51026 20.503 4.63888C20.4111 4.87866 20.3328 5.41772 20.2679 6.25605C20.4154 6.31691 20.587 6.35055 20.7829 6.35696C20.9228 6.36155 21.1428 6.34541 21.4429 6.30855C21.7429 6.27169 21.9629 6.25555 22.1028 6.26013C22.364 6.26869 22.586 6.332 22.7689 6.45005C22.8934 6.6409 22.9547 6.7643 22.9529 6.82027C22.9508 6.88557 22.9164 6.93581 22.8499 6.97098C22.831 6.9797 22.7635 7.04286 22.6476 7.16046C22.5702 7.24197 22.4757 7.27622 22.3641 7.26323C22.1667 7.30345 21.8066 7.31967 21.2839 7.31188C20.8452 7.30685 20.4935 7.35135 20.229 7.44541C20.0291 8.1299 19.9226 8.6727 19.9095 9.07382C19.9006 9.34434 19.9309 9.56012 20.0003 9.72114C20.4287 10.0433 21.1847 10.1988 22.2683 10.1877C22.3429 10.1901 22.4233 10.1601 22.5094 10.0975C22.5958 10.0256 22.6669 9.99061 22.7229 9.99244C22.9859 9.94503 23.1521 10.1466 23.2214 10.5971C23.2445 10.7473 23.2121 10.8816 23.1241 11.0001C23.0452 11.1283 22.931 11.1946 22.7814 11.199C21.6515 11.1993 20.6749 11.0786 19.8517 10.8369C19.5927 10.763 19.3595 10.6106 19.1523 10.3797C18.9451 10.1488 18.8321 9.89298 18.8133 9.61221C18.7559 8.7979 18.7797 8.07029 18.8848 7.42938C18.6294 7.24359 18.5184 7.06719 18.5519 6.9002C18.564 6.81655 18.6364 6.74422 18.7692 6.6832C18.9115 6.61315 18.9933 6.54112 19.0144 6.46711C19.0355 6.39309 19.0873 5.95122 19.1699 5.14149C18.6508 5.02176 18.4007 4.81746 18.4195 4.52859C18.4377 4.25837 18.608 4.04917 18.9303 3.90098C19.2328 3.78949 19.5353 3.67801 19.8378 3.56652C20.1981 3.40089 20.6417 3.25668 21.1687 3.13387C21.6204 3.02727 22.0766 2.92549 22.5374 2.82853C22.5843 2.82073 22.6405 2.8179 22.7058 2.82003C22.9576 2.82829 23.2483 2.93586 23.5777 3.14276C23.5858 3.18038 23.6068 3.2511 23.6408 3.35494C23.6747 3.45877 23.6909 3.53401 23.6894 3.58065C23.6869 3.65528 23.6523 3.71484 23.5855 3.75935ZM28.943 11.0367C28.9698 11.0749 28.9824 11.1174 28.9809 11.164C28.9738 11.3785 28.7446 11.5345 28.2932 11.6317C27.8113 11.2331 27.2149 10.6252 26.5039 9.80816C25.7121 8.89507 25.1212 8.25938 24.7314 7.90109C24.6955 8.14271 24.6234 8.77536 24.5152 9.79903C24.4431 10.5718 24.339 11.1847 24.2028 11.6378C24.1841 11.6372 24.1227 11.6585 24.0186 11.7018C23.9238 11.7454 23.844 11.7568 23.7793 11.736C23.3719 11.6292 23.176 11.338 23.1916 10.8623C23.1962 10.7223 23.221 10.5364 23.2659 10.3044C23.3121 10.0351 23.3409 9.86795 23.3524 9.80295C23.4074 9.26313 23.4519 8.62024 23.4856 7.87428L23.5356 6.3491C23.5772 5.08045 23.6821 4.01465 23.8505 3.1517C23.9627 2.5764 24.5171 2.32842 25.5137 2.40776C26.0168 2.44293 26.447 2.70915 26.8043 3.20645C27.1347 3.66552 27.2914 4.15625 27.2743 4.67864C27.2599 5.11707 27.0823 5.55015 26.7415 5.97788C26.4488 6.3605 26.0936 6.65703 25.6758 6.86746C25.5048 6.95524 25.4175 7.05511 25.4138 7.16705C25.4099 7.28831 25.5031 7.43611 25.6935 7.61044C25.8387 7.7366 25.984 7.86276 26.1293 7.98892C26.1383 7.99855 26.6361 8.48178 27.6226 9.43859C28.2473 10.038 28.6875 10.5707 28.943 11.0367ZM26.1964 4.65733C26.2299 4.49033 26.2441 4.34139 26.2391 4.21048C26.2175 4.01367 26.1394 3.83368 26.0046 3.67052C25.8792 3.50766 25.6673 3.42134 25.3688 3.41156C25.1449 3.40422 25.0027 3.4696 24.9421 3.60769C24.8878 3.83937 24.8558 4.10446 24.846 4.40297C24.8421 4.52424 24.8458 4.8372 24.8573 5.34184C24.8634 5.72492 24.8532 6.03741 24.8266 6.27934C25.6198 5.72635 26.0764 5.18568 26.1964 4.65733ZM37.0741 2.71649C36.9025 3.96221 36.7355 5.21274 36.5729 6.46809C36.3654 7.95543 36.2454 9.19816 36.2127 10.1963C36.202 10.5228 36.2007 10.8449 36.209 11.1627C36.2134 11.3123 36.1532 11.441 36.0283 11.549C35.9126 11.6573 35.7802 11.7089 35.631 11.7041C35.3418 11.6946 35.1057 11.4907 34.9226 11.0925C34.3638 9.90693 33.6821 8.05428 32.8775 5.53458C32.8607 5.478 32.8383 5.44925 32.8103 5.44833C32.745 5.44619 32.7009 5.51012 32.678 5.6401C32.4757 6.96886 32.3504 8.37017 32.3021 9.84405C32.2789 10.553 32.2738 11.2766 32.287 12.0147C32.2875 12.2855 32.2021 12.4695 32.0308 12.5666C31.9634 12.6298 31.8923 12.6601 31.8177 12.6577C31.7524 12.6556 31.6694 12.6248 31.5686 12.5655C31.4308 12.4956 31.3435 12.4507 31.3068 12.4308C31.1868 12.3896 31.1158 12.2752 31.094 12.0877C31.0895 11.9381 31.0852 11.7839 31.0811 11.625C31.0702 11.1017 31.0741 10.5556 31.0928 9.98652C31.1252 8.99772 31.2216 7.76355 31.3822 6.28401C31.6334 4.03237 31.7723 2.78558 31.7989 2.54366C31.8149 2.33874 31.9909 2.24178 32.3267 2.25278C32.4859 2.23932 32.7153 2.36357 33.0149 2.62552C33.2947 3.20433 33.6329 4.1399 34.0295 5.43225C34.4092 6.66801 34.7613 7.60871 35.0856 8.25435C35.2662 7.01826 35.5469 5.15045 35.9276 2.65091C35.9617 2.46526 36.1 2.37641 36.3425 2.38436C36.4265 2.38711 36.524 2.40431 36.635 2.43596C36.783 2.47817 36.8709 2.50439 36.8986 2.51464C36.9906 2.55501 37.0491 2.62229 37.0741 2.71649ZM42.1173 4.36652C41.7675 4.49514 41.2538 4.64173 40.576 4.80629C39.8983 4.97085 39.3845 5.11744 39.0348 5.24606C38.9429 5.48584 38.8645 6.0249 38.7997 6.86323C38.9471 6.92409 39.1188 6.95772 39.3147 6.96414C39.4546 6.96873 39.6746 6.95259 39.9746 6.91573C40.2747 6.87887 40.4946 6.86273 40.6346 6.86731C40.8958 6.87587 41.1178 6.93918 41.3007 7.05723C41.4252 7.24807 41.4865 7.37148 41.4847 7.42745C41.4825 7.49275 41.4482 7.54299 41.3817 7.57816C41.3627 7.58688 41.2953 7.65004 41.1794 7.76764C41.102 7.84915 41.0075 7.8834 40.8959 7.87041C40.6984 7.91063 40.3384 7.92685 39.8157 7.91906C39.377 7.91402 39.0253 7.95853 38.7608 8.05259C38.5609 8.73708 38.4544 9.27988 38.4413 9.681C38.4324 9.95152 38.4627 10.1673 38.5321 10.3283C38.9605 10.6505 39.7164 10.806 40.8 10.7948C40.8747 10.7973 40.955 10.7672 41.0411 10.7047C41.1275 10.6328 41.1987 10.5978 41.2547 10.5996C41.5177 10.5522 41.6839 10.7538 41.7531 11.2043C41.7762 11.3544 41.7438 11.4888 41.6559 11.6073C41.577 11.7355 41.4628 11.8017 41.3132 11.8062C40.1833 11.8065 39.2067 11.6858 38.3835 11.4441C38.1244 11.3702 37.8913 11.2178 37.6841 10.9869C37.4769 10.756 37.3639 10.5002 37.345 10.2194C37.2877 9.40507 37.3115 8.67746 37.4166 8.03656C37.1612 7.85076 37.0502 7.67437 37.0837 7.50738C37.0958 7.42373 37.1682 7.35139 37.3009 7.29037C37.4433 7.22033 37.525 7.1483 37.5461 7.07429C37.5672 7.00027 37.6191 6.5584 37.7016 5.74867C37.1826 5.62894 36.9325 5.42464 36.9513 5.13577C36.9695 4.86555 37.1398 4.65635 37.4621 4.50816C37.7646 4.39667 38.0671 4.28518 38.3696 4.1737C38.7298 4.00807 39.1735 3.86386 39.7004 3.74105C40.1522 3.63445 40.6084 3.53267 41.0692 3.4357C41.1161 3.4279 41.1722 3.42507 41.2375 3.42721C41.4894 3.43547 41.78 3.54304 42.1094 3.74994C42.1175 3.78756 42.1386 3.85828 42.1725 3.96212C42.2065 4.06595 42.2227 4.14119 42.2212 4.18783C42.2187 4.26246 42.1841 4.32202 42.1173 4.36652ZM48.0639 4.35125C48.2751 4.46089 48.3775 4.61366 48.3711 4.80955C48.3668 4.94015 48.305 5.11555 48.1857 5.33577C48.036 5.62969 47.9559 5.79515 47.9453 5.83216C47.6988 6.51512 47.4499 7.55753 47.1985 8.95938C46.9565 10.3615 46.722 11.3904 46.4951 12.046C46.433 12.2307 46.2714 12.3188 46.0102 12.3103C45.8889 12.3063 45.7824 12.2795 45.6906 12.2298C45.3513 12.0412 45.1154 11.688 44.983 11.17C44.9752 11.1231 44.9018 10.6537 44.7629 9.76206C44.6943 9.29289 44.6313 8.79122 44.5741 8.25706C44.435 8.51398 44.2412 9.15664 43.9927 10.1851C43.7768 11.0745 43.5389 11.6363 43.2791 11.8706C43.202 11.9428 43.0711 11.9478 42.8864 11.8857C42.6078 11.8393 42.4267 11.6652 42.3432 11.3637C42.2958 11.1006 42.2484 10.8376 42.201 10.5746C42.0551 9.89745 41.954 8.84825 41.8979 7.42698C41.851 6.00602 41.7544 4.9663 41.6079 4.30781C41.5835 4.19495 41.601 4.08814 41.6604 3.98736C41.7197 3.88658 41.8008 3.83321 41.9038 3.82724C41.979 3.81103 42.0539 3.80415 42.1286 3.80659C42.3897 3.81515 42.5865 3.93833 42.7188 4.17612C42.8423 4.96459 42.9696 6.49558 43.1006 8.76909C43.1804 8.61295 43.274 8.32186 43.3813 7.89581C43.4983 7.46074 43.6066 7.14679 43.7063 6.95395C43.8019 6.60222 43.8928 6.25034 43.979 5.89831C44.105 5.47288 44.3453 5.26597 44.6998 5.27758C44.793 5.28064 44.8952 5.29799 45.0062 5.32964C45.0137 5.38592 45.0546 5.41994 45.1289 5.43172C45.2033 5.44349 45.2448 5.45886 45.2535 5.47782C45.4437 5.94163 45.5776 6.55768 45.6552 7.32597C45.7783 8.41325 45.8558 9.04146 45.8876 9.21059C46.0641 8.38526 46.245 7.56474 46.4305 6.74905C46.6579 5.79465 46.9354 5.01932 47.2631 4.42306C47.3324 4.30393 47.4696 4.24773 47.6749 4.25446C47.8241 4.25935 47.9538 4.29161 48.0639 4.35125ZM51.5796 3.20576C51.5735 3.39233 51.4329 3.55114 51.1578 3.6822C51.0819 3.71707 51.0025 3.71914 50.9195 3.6884C50.7901 3.64681 50.7207 3.62586 50.7114 3.62556C50.6554 3.62372 50.5986 3.64987 50.5407 3.70401C50.0205 4.19123 49.7485 4.79865 49.7246 5.52626C49.7158 5.79678 49.7495 6.05002 49.8258 6.28598C49.8598 6.38982 50.1906 7.12438 50.8182 8.48966C51.2366 9.39985 51.4356 10.1674 51.4151 10.7924C51.3983 11.3055 51.2562 11.7958 50.9887 12.2633C50.8996 12.4191 50.6829 12.6174 50.3389 12.8583C50.0619 13.0453 49.8162 13.1353 49.6016 13.1283C49.5177 13.1256 49.4388 13.109 49.3651 13.0785C49.0893 12.9481 48.9544 12.7896 48.9605 12.603C48.9642 12.4911 49.0386 12.3581 49.1837 12.2041C49.2225 12.1587 49.312 12.1336 49.4523 12.1289C49.5925 12.1241 49.6876 12.0712 49.7376 11.9701C49.947 11.5661 50.0587 11.1495 50.0727 10.7204C50.0926 10.1141 49.8182 9.22731 49.2494 8.06006C48.6903 6.88379 48.422 5.9505 48.4447 5.2602C48.4633 4.69118 48.5919 4.18645 48.8305 3.74603C49.0991 3.24122 49.4703 2.88452 49.9441 2.67592C50.162 2.58034 50.3736 2.53591 50.5788 2.54263C50.9706 2.55547 51.2609 2.67237 51.4498 2.89334C51.5397 2.99901 51.583 3.10315 51.5796 3.20576ZM55.1217 3.53193C55.0443 4.18308 54.7679 5.35065 54.2925 7.03465C53.8804 8.49661 53.6729 9.69913 53.67 10.6422C53.6673 10.7262 53.6134 10.8038 53.5083 10.875C53.4129 10.9373 53.3235 10.9577 53.2402 10.9363C52.7675 10.8274 52.5233 10.586 52.5075 10.2119C52.5046 10.0157 52.5063 9.81966 52.5128 9.62376C52.5415 8.7469 52.7166 7.67873 53.038 6.41924C53.5285 4.55831 53.7966 3.50252 53.8421 3.25188C53.8645 3.14055 53.937 3.06355 54.0598 3.02088C54.1826 2.97821 54.2994 2.97737 54.4101 3.01835C54.5671 3.07019 54.7242 3.12202 54.8813 3.17386C55.056 3.2543 55.1362 3.37365 55.1217 3.53193ZM53.4847 12.0229C53.4991 12.1541 53.4763 12.2794 53.4164 12.3988C53.3561 12.5276 53.284 12.5906 53.2001 12.5879C53.1251 12.5947 53.0684 12.6162 53.0299 12.6523C52.9913 12.6884 52.9536 12.7012 52.9166 12.6906C52.4283 12.4879 52.1564 12.2362 52.1008 11.9355C52.0771 11.804 52.17 11.6763 52.3795 11.5524C52.5893 11.4192 52.7361 11.3587 52.8197 11.3708C52.9684 11.3943 53.1108 11.4643 53.2471 11.5809C53.3927 11.6977 53.4719 11.845 53.4847 12.0229Z" fill="white"/>
</svg>
