<svg width="52" height="20" viewBox="0 0 52 20" fill="none" xmlns="http://www.w3.org/2000/svg">
<path d="M7.27936 6.42823C7.30102 7.86518 7.32862 9.30679 7.36215 10.7531C7.38502 12.4692 7.46431 13.8939 7.60001 15.0271C7.6444 15.3978 7.69874 15.7619 7.76305 16.1195C7.79393 16.2877 7.74814 16.4435 7.62567 16.5871C7.5138 16.7294 7.37314 16.8107 7.20368 16.831C6.87536 16.8703 6.57336 16.6809 6.29768 16.2627C5.46133 15.02 4.37077 13.045 3.02601 10.3377C2.99721 10.2767 2.96693 10.2481 2.93516 10.2519C2.86102 10.2607 2.82224 10.3406 2.81881 10.4914C2.82012 12.0275 2.92097 13.6322 3.12135 15.3056C3.21774 16.1105 3.33721 16.9288 3.47976 17.7604C3.52713 18.0662 3.46247 18.2888 3.28578 18.4282C3.22053 18.5112 3.14553 18.5578 3.0608 18.5679C2.98667 18.5768 2.88754 18.5564 2.76343 18.5068C2.59569 18.4517 2.48937 18.4161 2.44447 18.4C2.30171 18.3741 2.20176 18.2572 2.14463 18.0492C2.11374 17.881 2.08223 17.7075 2.05008 17.5287C1.94728 16.9394 1.8572 16.3218 1.77984 15.6757C1.64541 14.5531 1.54091 13.1421 1.46636 11.443C1.36067 8.85583 1.30193 7.42332 1.29014 7.14542C1.27283 6.91115 1.45481 6.77119 1.83609 6.72553C2.0136 6.68279 2.29423 6.78347 2.67797 7.02757C3.09425 7.63304 3.63815 8.63146 4.30968 10.0228C4.95241 11.3532 5.51283 12.355 5.99094 13.0282C5.98113 11.6006 5.9751 9.44202 5.97286 6.55245C5.97927 6.33683 6.12015 6.21253 6.39552 6.17955C6.49084 6.16814 6.60395 6.17071 6.73484 6.18727C6.90937 6.20934 7.01316 6.22377 7.0462 6.23055C7.15718 6.26023 7.2349 6.32613 7.27936 6.42823ZM9.65771 7.75486C9.71567 8.05947 9.76431 8.37593 9.80362 8.70425C9.88986 9.42444 9.94572 10.5189 9.97119 11.9876C9.99667 13.4563 10.0538 14.5614 10.1426 15.3028C10.1755 15.5781 10.2132 15.8476 10.2555 16.1111C10.1957 16.419 10.0063 16.5867 9.68727 16.6142C9.22932 16.6475 8.95697 16.4814 8.87021 16.1158C8.78346 15.7502 8.71535 15.3609 8.66589 14.9478C8.57965 14.2276 8.53566 13.1425 8.5339 11.6924C8.54273 10.2411 8.50467 9.1606 8.41969 8.451C8.38672 8.17563 8.34379 7.90683 8.2909 7.64459C8.37272 7.43068 8.54071 7.3085 8.7949 7.27807C8.99613 7.25397 9.20433 7.28813 9.41951 7.38053C9.45807 7.34368 9.48794 7.32399 9.50912 7.32146C9.5409 7.31765 9.56312 7.3687 9.57581 7.47461C9.58043 7.60297 9.58931 7.67711 9.60244 7.69702C9.61684 7.72753 9.63526 7.74681 9.65771 7.75486ZM14.2875 5.63737C14.3218 5.92333 14.1527 6.1262 13.7803 6.246C13.2939 6.40092 13.0001 6.54891 12.8988 6.68995C11.8623 8.08173 11.4626 9.76788 11.6998 11.7484C11.8114 12.6804 12.0649 13.5417 12.4604 14.3323C12.7851 14.9809 13.0132 15.4048 13.1444 15.604C13.4713 16.0912 13.8388 16.4232 14.2467 16.6C14.4144 16.6551 14.5815 16.7049 14.748 16.7494C14.9289 16.8245 15.0294 16.9467 15.0497 17.1162C15.07 17.2856 15.0302 17.4462 14.9302 17.5978C14.8407 17.7482 14.7306 17.8151 14.5997 17.7985C14.4595 17.7938 14.2394 17.7504 13.9395 17.6681C13.3956 17.4324 12.7694 16.8682 12.0609 15.9754C11.8835 15.7496 11.7001 15.5191 11.5108 15.2839C11.3308 15.0369 11.1898 14.8014 11.0878 14.5772C11.0145 14.4141 10.8427 13.7418 10.5723 12.5602C10.4855 12.1946 10.4212 11.837 10.3794 11.4875C10.1549 9.61293 10.5095 7.95367 11.4431 6.50976C11.9872 5.67111 12.6035 5.21057 13.2919 5.12813C13.5885 5.09262 13.8693 5.15031 14.1345 5.30118C14.215 5.34526 14.266 5.45732 14.2875 5.63737ZM19.2798 6.69933C18.907 6.90512 18.352 7.15959 17.6148 7.46272C16.8776 7.76585 16.3226 8.02031 15.9497 8.2261C15.8874 8.51288 15.8921 9.1354 15.9639 10.0937C16.141 10.1369 16.3407 10.1452 16.5631 10.1186C16.722 10.0996 16.9677 10.0433 17.3003 9.94976C17.6328 9.85622 17.8786 9.79994 18.0374 9.78091C18.334 9.7454 18.5958 9.77851 18.8228 9.88024C18.9964 10.0743 19.0871 10.2031 19.0947 10.2667C19.1035 10.3408 19.0735 10.4035 19.0044 10.4547C18.9845 10.4679 18.9192 10.5509 18.8086 10.7038C18.7353 10.8092 18.6345 10.8643 18.5061 10.8689C18.29 10.9485 17.8861 11.0291 17.2943 11.1107C16.7977 11.1809 16.4082 11.292 16.1256 11.444C16.0182 12.2519 15.9918 12.8835 16.0463 13.3389C16.0831 13.646 16.1546 13.8845 16.2609 14.0544C16.8006 14.3443 17.6815 14.3893 18.9037 14.1892C18.9884 14.179 19.074 14.1312 19.1604 14.0456C19.2456 13.9495 19.32 13.8976 19.3835 13.89C19.6725 13.791 19.895 13.9899 20.0512 14.4869C20.1033 14.6525 20.0899 14.8099 20.0111 14.959C19.9441 15.1174 19.8265 15.2121 19.6583 15.2429C18.3819 15.4388 17.2578 15.4713 16.286 15.3406C15.9806 15.302 15.6909 15.1701 15.4168 14.9451C15.1428 14.7201 14.9709 14.4506 14.9011 14.1367C14.6954 13.2267 14.5965 12.4006 14.6043 11.6584C14.2836 11.4927 14.1278 11.3126 14.1367 11.1182C14.1359 11.0216 14.2052 10.9274 14.3446 10.8355C14.4933 10.7317 14.5732 10.6362 14.5842 10.5489C14.5953 10.4617 14.5774 9.95352 14.5306 9.0245C13.9236 8.97902 13.6057 8.79148 13.5769 8.46189C13.5508 8.15349 13.7069 7.8877 14.0455 7.66453C14.3679 7.48627 14.6903 7.308 15.0127 7.12973C15.3911 6.88031 15.8673 6.64066 16.4414 6.41077C16.9333 6.21221 17.4311 6.01831 17.9348 5.82908C17.9865 5.81215 18.0494 5.79924 18.1236 5.79036C18.4095 5.75612 18.7565 5.82738 19.1644 6.00413C19.18 6.04523 19.216 6.12149 19.2723 6.23292C19.3286 6.34435 19.36 6.42654 19.3663 6.47949C19.3765 6.56422 19.3476 6.6375 19.2798 6.69933ZM29.6007 5.22173C29.8583 5.30906 30.0004 5.46393 30.027 5.68634C30.0448 5.83462 30.0053 6.04345 29.9087 6.31286C29.7904 6.67079 29.7285 6.87158 29.723 6.91521C29.5626 7.72938 29.4617 8.95004 29.4202 10.5772C29.3893 12.2031 29.3024 13.4059 29.1594 14.1858C29.1212 14.4052 28.9539 14.5327 28.6573 14.5682C28.5196 14.5847 28.3947 14.5728 28.2824 14.5325C27.8665 14.3782 27.5389 14.02 27.2997 13.4577C27.2827 13.4061 27.1187 12.8886 26.8076 11.9052C26.6488 11.3871 26.491 10.8313 26.334 10.2377C26.2212 10.552 26.1134 11.3116 26.0106 12.5163C25.9205 13.5584 25.749 14.2343 25.496 14.5439C25.4214 14.6388 25.2744 14.6671 25.055 14.6289C24.7322 14.6246 24.4975 14.4593 24.351 14.1331C24.252 13.8442 24.1529 13.5552 24.0539 13.2663C23.7719 12.5266 23.4763 11.3588 23.167 9.76289C22.8684 8.16574 22.5793 7.00789 22.2999 6.28935C22.2529 6.16606 22.2542 6.04236 22.3038 5.91825C22.3534 5.79414 22.4358 5.71982 22.551 5.69528C22.6332 5.66395 22.7167 5.64321 22.8014 5.63306C23.098 5.59755 23.3415 5.70267 23.5321 5.94843C23.8081 6.81778 24.2167 8.52531 24.7579 11.071C24.821 10.8808 24.8764 10.5358 24.924 10.0359C24.9809 9.5242 25.0489 9.15079 25.1282 8.9157C25.1753 8.50183 25.2172 8.08859 25.2537 7.67599C25.3225 7.17358 25.5581 6.89828 25.9605 6.85009C26.0664 6.83741 26.1848 6.83934 26.3157 6.8559C26.3339 6.91817 26.386 6.94954 26.472 6.94998C26.558 6.95043 26.6076 6.96061 26.6207 6.98052C26.9159 7.47158 27.1737 8.14436 27.3942 8.99887C27.7213 10.2059 27.9175 10.9022 27.9827 11.0877C28.0393 10.1248 28.1018 9.1666 28.1703 8.21303C28.262 7.09552 28.4415 6.17163 28.7085 5.44137C28.7662 5.29481 28.9115 5.20758 29.1445 5.17967C29.314 5.15938 29.466 5.1734 29.6007 5.22173ZM36.1929 9.25052C35.7367 10.7339 34.9525 11.6765 33.8404 12.0783C33.7065 12.1265 33.5708 12.1589 33.4331 12.1754C32.8294 12.2477 32.1811 11.9923 31.4882 11.4092C31.0219 11.0138 30.7462 10.4614 30.6612 9.75177C30.5674 8.96804 30.6996 8.09815 31.0578 7.14211C31.2134 6.73674 31.4176 6.37925 31.6706 6.06964C31.9596 5.702 32.2524 5.50043 32.5489 5.46492C32.7184 5.44463 32.8849 5.48915 33.0484 5.59849C33.2119 5.70782 33.6293 5.82972 34.3007 5.96418C34.8294 6.07276 35.2237 6.3156 35.4837 6.69269C35.9394 7.3579 36.1977 7.94469 36.2585 8.45306C36.2928 8.73901 36.2709 9.00483 36.1929 9.25052ZM34.804 8.41774C34.6373 7.65348 34.3756 7.2175 34.0189 7.10981C33.9635 7.09497 33.9145 7.09008 33.8722 7.09516C33.7451 7.11038 33.5989 7.23531 33.4336 7.46996C33.251 7.73892 33.1039 7.90155 32.9925 7.95787C32.9222 7.99852 32.8124 7.97943 32.6633 7.90059C32.5143 7.82176 32.4185 7.78488 32.3762 7.78996C32.3444 7.79376 32.3192 7.80752 32.3005 7.83124C31.9679 8.19336 31.8415 8.70804 31.9214 9.37527C31.976 9.83068 32.1282 10.2046 32.378 10.4969C32.7266 10.8957 33.0015 11.083 33.2027 11.0589C33.6687 11.0031 34.0839 10.6579 34.4484 10.0234C34.7955 9.42322 34.914 8.888 34.804 8.41774ZM43.3675 11.9849C43.4044 12.0234 43.426 12.0692 43.4323 12.1221C43.4615 12.3657 43.2295 12.5815 42.7363 12.7695C42.123 12.4025 41.3441 11.8189 40.3996 11.0189C39.3471 10.1244 38.5697 9.50842 38.0674 9.17108C38.0686 9.45026 38.0966 10.1774 38.1513 11.3526C38.2036 12.238 38.192 12.9484 38.1165 13.4838C38.0953 13.4864 38.0296 13.5211 37.9195 13.588C37.8199 13.6536 37.7318 13.6803 37.6551 13.668C37.1764 13.6179 36.9047 13.3228 36.8401 12.7826C36.821 12.6238 36.8169 12.4094 36.8275 12.1396C36.8331 11.8273 36.8368 11.6335 36.8385 11.5581C36.8073 10.9388 36.7462 10.2048 36.6554 9.35628L36.448 7.62465C36.2755 6.18427 36.2098 4.96209 36.2507 3.95811C36.278 3.28878 36.8614 2.91275 38.001 2.83C38.5754 2.7827 39.1074 3.00905 39.597 3.50905C40.0498 3.97049 40.3116 4.49776 40.3827 5.09086C40.4423 5.58864 40.3165 6.10861 40.0055 6.65077C39.741 7.13364 39.391 7.53007 38.9554 7.84006C38.7775 7.9688 38.6961 8.09671 38.7113 8.2238C38.7278 8.36149 38.8587 8.51233 39.1039 8.67634C39.2898 8.79373 39.4758 8.91112 39.6617 9.02851C39.6736 9.03783 40.3195 9.49763 41.5995 10.4079C42.4089 10.977 42.9982 11.5027 43.3675 11.9849ZM39.1613 5.25323C39.1703 5.05878 39.1606 4.88806 39.1322 4.74105C39.0738 4.52245 38.9544 4.33263 38.774 4.17161C38.6041 4.00932 38.3498 3.94846 38.0108 3.98905C37.7567 4.01948 37.6073 4.11794 37.5628 4.28442C37.5415 4.55553 37.5512 4.86055 37.5918 5.19946C37.6083 5.33714 37.6666 5.69004 37.7669 6.25815C37.8401 6.68984 37.8826 7.04464 37.8944 7.32254C38.6948 6.56064 39.1171 5.87087 39.1613 5.25323ZM47.4686 10.4947C47.5384 10.54 47.5791 10.6104 47.5905 10.7057C47.5981 10.7692 47.5748 10.9332 47.5205 11.1975C47.4769 11.192 47.4392 11.1911 47.4074 11.1949C47.3438 11.2026 47.2623 11.2392 47.1627 11.3048C47.0737 11.3692 47.0028 11.4045 46.9498 11.4109C46.8969 11.4172 46.8361 11.403 46.7674 11.3683C46.0046 11.0084 44.8232 10.4731 43.2234 9.76225C43.3021 10.1503 43.3957 10.7085 43.5044 11.4367C43.5146 11.5214 43.5404 11.6473 43.5819 11.8142C43.6233 11.9811 43.6485 12.1016 43.6574 12.1758C43.6878 12.4299 43.5976 12.618 43.3866 12.74C43.3281 12.7899 43.2406 12.8219 43.1241 12.8359C42.997 12.8511 42.9131 12.8235 42.8725 12.7532C42.5857 12.6908 42.4046 12.5245 42.3293 12.2542C42.1109 11.5069 41.9402 10.6196 41.8172 9.59223C41.7728 9.22155 41.7174 8.66955 41.6511 7.93623C41.5835 7.19232 41.5275 6.63503 41.4831 6.26434C41.3487 5.1417 41.1579 4.1762 40.9107 3.36786C40.8743 3.2433 40.9383 3.1497 41.1026 3.08704C41.2272 3.05064 41.3571 3.01361 41.4922 2.97594C41.635 3.00181 41.7843 3.03765 41.9402 3.08344C42.0948 3.11864 42.185 3.19915 42.2108 3.32497C42.5421 4.74633 42.748 5.88191 42.8282 6.73173C43.2155 6.28786 43.6512 5.7093 44.1351 4.99603C44.547 4.39882 44.953 3.79694 45.3531 3.19041C45.4738 3.12224 45.6084 3.07927 45.7566 3.06152C46.1697 3.01205 46.4039 3.12903 46.4593 3.41246C46.2414 4.10461 45.7521 4.9528 44.9915 5.95703C44.1003 7.12729 43.5384 7.95195 43.3057 8.43102C44.0092 8.74425 44.7181 9.05686 45.4322 9.36883C46.2294 9.74605 46.9082 10.1213 47.4686 10.4947ZM50.0114 1.56905C50.0366 2.31803 49.9263 3.68484 49.6805 5.66947C49.4679 7.39231 49.4415 8.78668 49.6013 9.85256C49.6127 9.94788 49.5653 10.0449 49.4589 10.1436C49.3619 10.2304 49.2644 10.2689 49.1666 10.2591C48.6138 10.2179 48.2961 9.98738 48.2136 9.56754C48.1764 9.3464 48.1445 9.12462 48.1178 8.90221C47.9986 7.90665 48.0116 6.66967 48.1569 5.19124C48.3891 3.00411 48.5093 1.76503 48.5175 1.474C48.5234 1.34437 48.5921 1.24484 48.7234 1.17539C48.8548 1.10595 48.9865 1.0848 49.1187 1.11195C49.3051 1.14334 49.4915 1.17474 49.6778 1.20613C49.8892 1.26677 50.0004 1.38774 50.0114 1.56905ZM49.6308 11.4444C49.6697 11.5901 49.6657 11.7356 49.6186 11.8809C49.5728 12.0368 49.5023 12.1204 49.407 12.1318C49.3235 12.1526 49.2631 12.1867 49.2258 12.2341C49.1885 12.2815 49.1481 12.3025 49.1044 12.297C48.5178 12.1524 48.1671 11.9151 48.0523 11.585C48.0028 11.4406 48.0857 11.2802 48.3009 11.1041C48.5149 10.9173 48.6702 10.8235 48.7668 10.8227C48.9388 10.8236 49.1118 10.878 49.2859 10.9861C49.4705 11.0929 49.5855 11.2457 49.6308 11.4444Z" fill="#424242"/>
</svg>
