<svg width="108" height="21" viewBox="0 0 108 21" fill="none" xmlns="http://www.w3.org/2000/svg">
<path d="M8.30599 10.2126C8.55949 10.311 8.69471 10.4719 8.71165 10.6953C8.72294 10.8442 8.67445 11.0511 8.56618 11.3161C8.43244 11.6685 8.36187 11.8664 8.35446 11.9098C8.15888 12.7162 8.00499 13.9313 7.89279 15.5551C7.79123 17.1781 7.65208 18.3761 7.47535 19.149C7.42767 19.3666 7.25492 19.4866 6.95711 19.5092C6.81884 19.5197 6.69451 19.5024 6.58411 19.4573C6.17525 19.285 5.86355 18.9129 5.64901 18.3408C5.63434 18.2884 5.49297 17.7643 5.22489 16.7683C5.08884 16.2438 4.95528 15.6816 4.82422 15.0818C4.69789 15.3909 4.55718 16.1451 4.40208 17.3442C4.26679 18.3814 4.06604 19.0492 3.79984 19.3475C3.7212 19.439 3.5731 19.461 3.35554 19.4133C3.03323 19.3949 2.80599 19.2196 2.67382 18.8873C2.58742 18.5943 2.50102 18.3014 2.41462 18.0084C2.16509 17.2571 1.92053 16.0776 1.68093 14.4697C1.45197 12.8611 1.21354 11.6918 0.965625 10.9618C0.924038 10.8366 0.930716 10.7131 0.98566 10.5912C1.0406 10.4694 1.12617 10.3987 1.24236 10.3792C1.32584 10.3515 1.41012 10.3344 1.49521 10.3279C1.79302 10.3053 2.03178 10.421 2.21149 10.6748C2.44942 11.5553 2.78338 13.279 3.21337 15.8458C3.28475 15.6585 3.35507 15.3162 3.42433 14.8189C3.50342 14.3101 3.58767 13.9401 3.6771 13.7086C3.74217 13.2972 3.80193 12.8862 3.85637 12.4755C3.9469 11.9766 4.19425 11.7118 4.59842 11.6812C4.70478 11.6731 4.82299 11.6802 4.95304 11.7024C4.96852 11.7654 5.0192 11.799 5.1051 11.8032C5.191 11.8074 5.24007 11.8197 5.25232 11.8402C5.52584 12.3436 5.75416 13.0269 5.9373 13.8902C6.21168 15.1103 6.3774 15.8145 6.43446 16.0027C6.53285 15.0432 6.63697 14.0886 6.7468 13.1389C6.88708 12.0264 7.1065 11.1112 7.40507 10.3932C7.46904 10.2493 7.61802 10.1685 7.85201 10.1507C8.02219 10.1378 8.17352 10.1585 8.30599 10.2126ZM14.3337 9.04947C14.3842 9.9977 14.3437 11.5091 14.2122 13.5836C14.0939 15.5502 14.0743 17.0547 14.1533 18.097C14.1783 18.4267 14.2127 18.7397 14.2566 19.0359C14.2622 19.1103 14.2356 19.1819 14.1766 19.2506C14.1184 19.3298 14.0468 19.3727 13.9617 19.3792C13.6639 19.4018 13.4651 19.3901 13.3654 19.3442C12.9434 19.1408 12.7079 18.7147 12.6587 18.0659C12.649 17.9383 12.6394 17.7411 12.6299 17.4744C12.6302 17.1963 12.6255 16.9934 12.6158 16.8657C12.5997 16.653 12.6017 16.3266 12.6218 15.8865C12.6419 15.4464 12.6431 15.1093 12.6253 14.8753C12.4772 14.8973 12.2682 14.8917 11.9983 14.8587C11.739 14.8249 11.5508 14.8124 11.4338 14.8213C11.2955 14.8318 11.1642 14.8631 11.0398 14.9153C10.8483 15.7749 10.7933 17.0253 10.875 18.6665C10.5246 18.8429 10.1724 18.8535 9.81837 18.6985C9.56406 18.5894 9.42239 18.3435 9.39335 17.9606C9.3869 17.8755 9.38375 17.7634 9.3839 17.6243C9.39388 17.4738 9.39766 17.3826 9.39524 17.3507C9.38359 16.7739 9.41961 15.6266 9.50328 13.9086C9.57601 12.4697 9.5752 11.3305 9.50084 10.491C9.49197 10.374 9.56609 10.2935 9.72321 10.2495C9.89097 10.2047 9.98428 10.1656 10.0031 10.132C10.0726 10.2016 10.2317 10.2538 10.4803 10.2884C10.6856 10.3156 10.8152 10.4021 10.869 10.5477C10.9743 10.8072 11.0394 11.1018 11.0644 11.4315C11.0822 11.6655 11.0732 12.0406 11.0374 12.5568C11.0115 13.0615 11.0087 13.4468 11.0288 13.7127C11.1637 13.7988 11.3277 13.8452 11.5208 13.8519C11.65 13.8635 11.8312 13.8551 12.0644 13.8267C12.3712 13.7821 12.5566 13.7573 12.6204 13.7525C12.8016 12.6155 12.9259 11.1513 12.9933 9.35971C13.0076 8.98422 13.1264 8.78801 13.3498 8.77107C13.9095 8.67514 14.2374 8.76794 14.3337 9.04947ZM21.2917 16.7213C21.3684 16.8866 21.4116 17.0331 21.4213 17.1607C21.4374 17.3735 21.3612 17.5665 21.1924 17.7397C21.0237 17.913 20.9071 17.9967 20.8424 17.9909C20.314 17.9347 19.9524 17.5396 19.7577 16.8055C19.5475 16.0085 19.3208 15.3464 19.0775 14.8193C18.7183 14.8786 18.3591 14.9379 17.9999 14.9973C17.5891 15.0819 17.2744 15.2341 17.0558 15.454C16.9638 15.7926 16.8539 16.3892 16.7262 17.244C16.6042 18.0342 16.4735 18.6378 16.334 19.0549C16.2634 19.2528 16.0866 19.3197 15.8036 19.2555C15.4438 19.1652 15.2455 19.0197 15.2089 18.8193C15.1464 18.4175 15.2222 17.8662 15.4365 17.1653C15.6967 16.3647 15.8303 15.7983 15.8372 15.4661C15.8406 15.3696 15.7634 15.2685 15.6056 15.1628C15.4478 15.0571 15.3665 14.9723 15.3617 14.9085C15.3576 14.8553 15.3749 14.8005 15.4134 14.7441C15.4617 14.6763 15.5698 14.6199 15.7375 14.5751C15.9151 14.5189 16.0117 14.4527 16.0273 14.3767C16.1785 13.8303 16.4066 12.8182 16.7117 11.3402C16.9675 10.0585 17.2083 9.07216 17.434 8.38112C17.4865 8.22737 17.6138 8.14284 17.8159 8.12751C17.9648 8.11622 18.1014 8.154 18.2257 8.24085C18.5428 8.47354 18.7633 8.84192 18.8871 9.346C18.984 9.77724 19.0756 10.2089 19.1618 10.6409C19.884 13.1107 20.594 15.1375 21.2917 16.7213ZM18.7313 13.8507C18.6696 13.4596 18.567 13.0234 18.4235 12.5422C18.2849 12.1248 18.1516 11.707 18.0236 11.2889C17.7714 12.1959 17.5618 13.0996 17.3948 14.0002C17.5625 13.9554 18.0081 13.9055 18.7313 13.8507ZM28.7903 6.92623C28.7236 7.31639 28.5597 7.55346 28.2986 7.63744C27.6202 7.86004 26.4352 8.17455 24.7438 8.58095C24.7319 11.2455 24.7929 13.4605 24.9268 15.2261C24.9776 15.8962 25.0383 16.5548 25.1087 17.202C25.1347 17.4033 25.1358 17.5583 25.1119 17.6671C25.0716 17.8413 24.9713 17.9292 24.811 17.9306C24.5017 17.9434 24.2364 17.8298 24.0149 17.5899C23.7943 17.3605 23.6616 17.0925 23.617 16.7856C23.5659 16.3937 23.5238 15.9797 23.4907 15.5436C23.4375 14.8417 23.401 13.7265 23.3814 12.1983C23.3667 10.7339 23.3249 9.61921 23.2562 8.85422C22.9674 8.85472 22.5706 8.91156 22.0657 9.02473C21.4872 9.15418 21.0862 9.22737 20.8628 9.24431C20.3417 9.28383 19.9057 9.17783 19.5551 8.92629C19.4064 8.65943 19.3317 8.52068 19.3309 8.51005C19.3253 8.43559 19.3565 8.353 19.4245 8.26226C19.756 8.11946 20.4446 7.96026 21.4903 7.78469C22.4084 7.61879 23.0868 7.39618 23.5256 7.11687C23.9067 7.20564 24.3366 7.23187 24.8152 7.19558C25.2939 7.15928 25.7468 7.0661 26.174 6.91603C26.3008 6.89572 26.6196 6.79666 27.1303 6.61887C27.5059 6.49411 27.8226 6.438 28.0803 6.45055C28.2717 6.43604 28.3575 6.50976 28.3377 6.67172C28.6249 6.64994 28.7757 6.73478 28.7903 6.92623ZM29.6455 7.1502C29.6616 7.36292 29.5215 7.56075 29.2252 7.74368C29.1433 7.79268 29.0533 7.80485 28.9552 7.7802C28.803 7.74895 28.7217 7.73373 28.711 7.73453C28.6472 7.73937 28.5858 7.77612 28.5268 7.84478C27.996 8.46268 27.7621 9.18644 27.825 10.0161C27.8484 10.3245 27.918 10.6081 28.0339 10.8667C28.0854 10.9805 28.552 11.7741 29.434 13.2476C30.0219 14.23 30.343 15.0775 30.397 15.7901C30.4414 16.3751 30.3405 16.9497 30.0945 17.5139C30.0125 17.702 29.7909 17.9541 29.4298 18.2703C29.1383 18.5171 28.8702 18.6497 28.6256 18.6683C28.5298 18.6756 28.4382 18.6665 28.3507 18.641C28.0211 18.5269 27.8483 18.3635 27.8322 18.1508C27.8225 18.0232 27.8906 17.8629 28.0364 17.67C28.0749 17.6136 28.1735 17.574 28.3323 17.5513C28.491 17.5285 28.5925 17.4567 28.6368 17.3356C28.8247 16.8507 28.9001 16.3636 28.863 15.8743C28.8105 15.183 28.389 14.2094 27.5985 12.9536C26.8178 11.6863 26.3976 10.6592 26.3379 9.8721C26.2887 9.2233 26.3723 8.63395 26.5889 8.10406C26.8317 7.4973 27.2093 7.04611 27.7218 6.75052C27.9575 6.61497 28.1924 6.53832 28.4264 6.52058C28.8731 6.4867 29.2174 6.58361 29.4594 6.8113C29.5746 6.92023 29.6366 7.0332 29.6455 7.1502ZM39.6192 7.35661C39.6012 8.10678 39.4639 9.11739 39.2073 10.3884C38.8553 12.0946 38.6553 13.126 38.6075 13.4826C38.455 14.5746 38.0825 15.587 37.49 16.5198C37.1179 17.115 36.6603 17.4279 36.117 17.4584C35.6376 17.484 35.2583 17.2079 34.9791 16.63C34.4991 15.6609 34.2079 14.5009 34.1055 13.1501C34.0466 12.3737 34.0452 11.3682 34.1014 10.1338C34.0988 10.241 34.0685 9.91165 34.0104 9.14585C33.9604 8.48641 34.1907 8.13733 34.7012 8.09862C34.8076 8.09055 34.9217 8.11399 35.0435 8.16893C35.1752 8.21244 35.3019 8.26166 35.4238 8.3166C35.4755 8.85824 35.5201 9.65716 35.5574 10.7134C35.5897 11.8448 35.6248 12.6605 35.6627 13.1604C35.703 13.6922 35.7557 14.1749 35.8207 14.6086C35.8589 14.8303 35.9869 15.2485 36.2046 15.8632C36.6134 15.3294 36.914 14.638 37.1064 13.789C37.1705 13.506 37.2834 12.738 37.4451 11.4848C37.5762 10.5335 37.7492 9.78229 37.9642 9.23112C38.0273 9.07657 38.0698 8.78987 38.0915 8.37103C38.1132 7.95219 38.1553 7.66017 38.2176 7.49499C38.3153 7.23085 38.5077 7.08789 38.7949 7.06611C39.1671 7.03788 39.4419 7.13471 39.6192 7.35661ZM44.4356 10.1845C44.0975 11.0873 43.7958 11.6932 43.5304 12.0022C43.1176 12.4827 42.8915 12.7459 42.8522 12.7917C42.5623 13.0597 42.2651 13.232 41.9607 13.3086C41.9343 13.5245 41.932 13.7761 41.9538 14.0633C41.9691 14.2654 42.0084 14.5726 42.0718 14.985C42.1343 15.3867 42.1729 15.6833 42.1874 15.8748C42.2423 16.5981 42.1132 17.1534 41.8003 17.5408C41.8003 17.5408 41.6453 17.4724 41.3354 17.3354C41.1473 17.2534 41.0374 17.1441 41.0057 17.0074C40.8469 16.3241 40.7352 15.557 40.6707 14.7061C40.6279 14.1424 40.5961 13.2998 40.5753 12.1781C40.5544 11.0565 40.5222 10.2085 40.4786 9.63414C40.4157 8.80452 40.3102 8.04767 40.162 7.36358C40.0793 7.40194 39.9955 7.35481 39.9106 7.22219C39.8257 7.08956 39.7558 7.01463 39.701 6.99739C39.7284 6.653 39.8059 6.47597 39.9335 6.46629C40.089 6.40101 40.4195 6.38664 40.9251 6.42319C42.3247 6.54169 43.413 7.06891 44.19 8.00483C44.4376 8.30698 44.5767 8.66014 44.6073 9.06431C44.634 9.4153 44.5767 9.7887 44.4356 10.1845ZM43.3054 9.03468C43.3263 8.6052 43.1201 8.28387 42.6867 8.0707C42.6654 8.07231 42.2708 7.94712 41.5029 7.69514C41.7683 9.64331 41.9096 11.0125 41.9267 11.8028C42.8056 10.8376 43.2652 9.9149 43.3054 9.03468ZM54.1635 11.5328C53.6432 12.995 52.8188 13.9026 51.6903 14.2556C51.5544 14.298 51.4174 14.3244 51.2791 14.3349C50.6729 14.3809 50.0363 14.0975 49.3694 13.4849C48.9207 13.0696 48.6693 12.5057 48.6153 11.7931C48.5556 11.006 48.7255 10.1427 49.1249 9.2031C49.2979 8.80488 49.5176 8.45661 49.7838 8.15829C50.0885 7.80357 50.3898 7.61491 50.6876 7.59233C50.8577 7.57942 51.0221 7.63114 51.1807 7.74748C51.3393 7.86382 51.7511 8.00375 52.416 8.16727C52.9394 8.29874 53.3228 8.55849 53.5662 8.94653C53.9925 9.63092 54.225 10.2284 54.2637 10.7389C54.2855 11.0261 54.2521 11.2907 54.1635 11.5328ZM52.8121 10.6404C52.6788 9.86961 52.4363 9.42267 52.0847 9.29957C52.0299 9.28233 51.9812 9.27532 51.9387 9.27855C51.811 9.28823 51.6595 9.40669 51.4842 9.63393C51.2901 9.89469 51.1361 10.0508 51.0223 10.1022C50.9503 10.1398 50.8415 10.1159 50.696 10.0307C50.5504 9.94543 50.4564 9.90443 50.4139 9.90765C50.382 9.91007 50.3562 9.92273 50.3365 9.94561C49.9884 10.2929 49.8398 10.8016 49.8906 11.4717C49.9253 11.929 50.0611 12.3092 50.298 12.6122C50.6289 13.0257 50.8954 13.2247 51.0975 13.2094C51.5655 13.1739 51.9953 12.8471 52.3871 12.2291C52.7599 11.6446 52.9016 11.115 52.8121 10.6404ZM59.7788 5.82782C59.7608 6.578 59.6235 7.58861 59.3669 8.85965C59.0149 10.5658 58.815 11.5972 58.7671 11.9539C58.6146 13.0459 58.2421 14.0583 57.6496 14.9911C57.2775 15.5862 56.8199 15.8991 56.2766 15.9296C55.7972 15.9552 55.4179 15.6791 55.1387 15.1012C54.6587 14.1321 54.3675 12.9721 54.2651 11.6213C54.2062 10.8449 54.2049 9.83946 54.261 8.60501C54.2584 8.71218 54.2281 8.38287 54.17 7.61706C54.12 6.95762 54.3503 6.60855 54.8608 6.56983C54.9672 6.56177 55.0813 6.5852 55.2031 6.64015C55.3348 6.68365 55.4615 6.73287 55.5834 6.78782C55.6351 7.32945 55.6797 8.12837 55.717 9.18458C55.7493 10.316 55.7844 11.1317 55.8223 11.6316C55.8627 12.1634 55.9153 12.6462 55.9803 13.0798C56.0185 13.3016 56.1465 13.7198 56.3643 14.3344C56.7731 13.8006 57.0736 13.1092 57.266 12.2603C57.3301 11.9773 57.443 11.2092 57.6047 9.95604C57.7358 9.00474 57.9089 8.2535 58.1238 7.70234C58.187 7.54778 58.2294 7.26109 58.2511 6.84225C58.2729 6.4234 58.3149 6.13139 58.3772 5.9662C58.4749 5.70206 58.6673 5.5591 58.9545 5.53733C59.3267 5.5091 59.6015 5.60593 59.7788 5.82782ZM67.754 3.97145C67.6873 4.36161 67.5234 4.59868 67.2624 4.68266C66.5839 4.90527 65.399 5.21977 63.7075 5.62617C63.6957 8.29069 63.7567 10.5058 63.8906 12.2714C63.9414 12.9414 64.002 13.6001 64.0725 14.2473C64.0985 14.4485 64.0995 14.6036 64.0757 14.7123C64.0354 14.8866 63.9351 14.9744 63.7747 14.9759C63.4655 14.9886 63.2001 14.875 62.9787 14.6351C62.758 14.4058 62.6254 14.1377 62.5807 13.8309C62.5296 13.4389 62.4875 13.0249 62.4545 12.5889C62.4012 11.8869 62.3648 10.7718 62.3452 9.24354C62.3304 7.77913 62.2887 6.66443 62.22 5.89944C61.9312 5.89994 61.5343 5.95678 61.0294 6.06995C60.4509 6.1994 60.05 6.27259 59.8266 6.28953C59.3054 6.32905 58.8695 6.22305 58.5188 5.97151C58.3702 5.70465 58.2955 5.5659 58.2947 5.55527C58.289 5.48081 58.3202 5.39822 58.3882 5.30749C58.7197 5.16468 59.4083 5.00549 60.454 4.82991C61.3721 4.66401 62.0505 4.44141 62.4893 4.16209C62.8705 4.25086 63.3004 4.27709 63.779 4.2408C64.2576 4.2045 64.7105 4.11132 65.1377 3.96125C65.2646 3.94094 65.5833 3.84188 66.094 3.66409C66.4697 3.53933 66.7863 3.48322 67.044 3.49578C67.2355 3.48126 67.3213 3.55498 67.3015 3.71694C67.5886 3.69516 67.7395 3.78 67.754 3.97145ZM76.7899 3.28622C76.7233 3.67638 76.5594 3.91345 76.2983 3.99743C75.6199 4.22003 74.4349 4.53454 72.7435 4.94094C72.7316 7.60546 72.7926 9.82053 72.9265 11.5861C72.9773 12.2562 73.038 12.9148 73.1084 13.562C73.1344 13.7633 73.1354 13.9183 73.1116 14.0271C73.0713 14.2013 72.971 14.2892 72.8107 14.2906C72.5014 14.3034 72.2361 14.1898 72.0146 13.9498C71.794 13.7205 71.6613 13.4525 71.6167 13.1456C71.5656 12.7537 71.5235 12.3397 71.4904 11.9036C71.4372 11.2016 71.4007 10.0865 71.3811 8.55831C71.3663 7.0939 71.3246 5.9792 71.2559 5.2142C70.9671 5.21471 70.5703 5.27155 70.0654 5.38472C69.4868 5.51417 69.0859 5.58736 68.8625 5.6043C68.3414 5.64382 67.9054 5.53782 67.5547 5.28628C67.4061 5.01942 67.3314 4.88067 67.3306 4.87004C67.325 4.79558 67.3562 4.71299 67.4242 4.62225C67.7556 4.47945 68.4442 4.32025 69.49 4.14468C70.408 3.97878 71.0865 3.75617 71.5253 3.47686C71.9064 3.56563 72.3363 3.59186 72.8149 3.55557C73.2936 3.51927 73.7465 3.42609 74.1737 3.27602C74.3005 3.25571 74.6193 3.15665 75.13 2.97886C75.5056 2.8541 75.8223 2.79799 76.0799 2.81054C76.2714 2.79602 76.3572 2.86975 76.3374 3.03171C76.6246 3.00993 76.7754 3.09477 76.7899 3.28622ZM79.7589 4.08801C79.8095 5.03623 79.769 6.54762 79.6375 8.62217C79.5192 10.5888 79.4995 12.0932 79.5786 13.1355C79.6036 13.4653 79.638 13.7782 79.6819 14.0744C79.6875 14.1489 79.6608 14.2204 79.6019 14.2891C79.5437 14.3684 79.4721 14.4113 79.387 14.4177C79.0892 14.4403 78.8904 14.4286 78.7906 14.3827C78.3687 14.1794 78.1331 13.7533 78.0839 13.1045C78.0743 12.9768 78.0647 12.7797 78.0551 12.513C78.0554 12.2348 78.0507 12.0319 78.0411 11.9043C78.0249 11.6916 78.0269 11.3651 78.047 10.925C78.0671 10.4849 78.0683 10.1479 78.0506 9.91387C77.9025 9.9358 77.6935 9.93025 77.4235 9.89724C77.1642 9.86341 76.9761 9.85094 76.8591 9.85981C76.7208 9.8703 76.5895 9.90165 76.4651 9.95387C76.2735 10.8135 76.2186 12.0639 76.3003 13.7051C75.9499 13.8814 75.5977 13.8921 75.2436 13.7371C74.9893 13.628 74.8477 13.382 74.8186 12.9991C74.8122 12.914 74.809 12.8019 74.8092 12.6628C74.8192 12.5123 74.8229 12.4211 74.8205 12.3892C74.8089 11.8124 74.8449 10.6651 74.9285 8.94718C75.0013 7.50823 75.0005 6.36902 74.9261 5.52958C74.9172 5.41258 74.9914 5.33208 75.1485 5.28807C75.3162 5.24326 75.4095 5.20409 75.4284 5.17057C75.4979 5.24018 75.6569 5.2923 75.9056 5.32693C76.1109 5.35415 76.2405 5.4406 76.2943 5.58628C76.3996 5.84573 76.4647 6.14032 76.4897 6.47004C76.5074 6.70403 76.4985 7.07912 76.4627 7.5953C76.4368 8.10004 76.4339 8.48536 76.4541 8.75126C76.589 8.83731 76.753 8.88371 76.946 8.89046C77.0753 8.90205 77.2565 8.89366 77.4897 8.86528C77.7965 8.82061 77.9818 8.79586 78.0457 8.79102C78.2269 7.65407 78.3512 6.18981 78.4186 4.39825C78.4329 4.02276 78.5517 3.82654 78.7751 3.80961C79.3348 3.71368 79.6627 3.80648 79.7589 4.08801ZM85.9149 4.56789C85.5334 4.75727 84.9679 4.98736 84.2182 5.25816C83.4685 5.52896 82.903 5.75905 82.5215 5.94843C82.4468 6.23223 82.4244 6.85437 82.4545 7.81485C82.6295 7.86576 82.8287 7.88275 83.052 7.86581C83.2116 7.85371 83.4595 7.80816 83.7958 7.72917C84.1322 7.65018 84.3801 7.60464 84.5396 7.59254C84.8374 7.56995 85.0976 7.61441 85.32 7.72591C85.485 7.92735 85.5699 8.05997 85.5748 8.12379C85.5804 8.19824 85.5476 8.25956 85.4764 8.30775C85.4559 8.32 85.3871 8.4001 85.27 8.54805C85.1922 8.65023 85.089 8.70084 84.9606 8.69988C84.7413 8.77 84.3342 8.83296 83.7394 8.88876C83.2403 8.93731 82.8463 9.03137 82.5573 9.17095C82.4149 9.97335 82.3611 10.6032 82.3957 11.0606C82.4191 11.369 82.4802 11.6104 82.579 11.7848C83.1055 12.0979 83.9837 12.181 85.2134 12.0343C85.2985 12.0279 85.3861 11.9838 85.4762 11.9021C85.5655 11.8097 85.642 11.7611 85.7058 11.7563C85.9988 11.6699 86.2125 11.8783 86.3469 12.3816C86.3918 12.5493 86.3715 12.706 86.2863 12.8515C86.2125 13.0069 86.0909 13.0963 85.9216 13.1199C84.6378 13.26 83.5134 13.2437 82.5482 13.0708C82.2447 13.0189 81.961 12.8747 81.697 12.6379C81.433 12.4012 81.273 12.1245 81.2169 11.8079C81.051 10.8898 80.9881 10.0602 81.0281 9.31901C80.715 9.13951 80.5671 8.95282 80.5845 8.75895C80.5879 8.66242 80.6612 8.57128 80.8045 8.48554C80.9576 8.38835 81.0415 8.2964 81.0563 8.2097C81.0712 8.123 81.0754 7.61456 81.069 6.68437C80.4645 6.61255 80.1551 6.41137 80.1407 6.08084C80.128 5.77159 80.2956 5.51284 80.6435 5.3046C80.9733 5.14052 81.3032 4.97644 81.6331 4.81236C82.0219 4.57963 82.5081 4.3609 83.0916 4.15619C83.5917 3.97921 84.0975 3.80714 84.609 3.63998C84.6613 3.62531 84.7247 3.61515 84.7992 3.60951C85.0864 3.58773 85.4299 3.674 85.8297 3.86832C85.8436 3.91006 85.8762 3.98782 85.9276 4.10159C85.9791 4.21536 86.0068 4.29883 86.0108 4.35202C86.0173 4.4371 85.9853 4.50906 85.9149 4.56789ZM92.9632 12.1687C92.9983 12.2088 93.0179 12.2555 93.0219 12.3086C93.0405 12.5533 92.7993 12.7588 92.2985 12.9251C91.7017 12.5318 90.9489 11.9149 90.0401 11.0746C89.0274 10.1351 88.2775 9.48598 87.7904 9.12712C87.7794 9.40608 87.7758 10.1338 87.7794 11.3102C87.7932 12.197 87.7507 12.9063 87.6519 13.4379C87.6307 13.4395 87.5635 13.4714 87.4506 13.5334C87.3482 13.5947 87.259 13.6175 87.183 13.6019C86.7069 13.531 86.4483 13.2243 86.4072 12.6819C86.3951 12.5223 86.4002 12.308 86.4226 12.0389C86.4418 11.7272 86.4538 11.5337 86.4588 11.4585C86.4546 10.8384 86.4255 10.1025 86.3716 9.25076L86.2398 7.51175C86.1301 6.06524 86.1175 4.84135 86.202 3.84009C86.2584 3.17259 86.8576 2.82227 87.9997 2.78915C88.5757 2.76686 89.0973 3.01613 89.5647 3.53695C89.997 4.01764 90.2357 4.55579 90.2809 5.15142C90.3188 5.65131 90.1705 6.16533 89.8362 6.69346C89.551 7.16437 89.1841 7.54521 88.7354 7.83596C88.552 7.95684 88.4652 8.0811 88.4749 8.20873C88.4854 8.347 88.6095 8.50339 88.8474 8.67791C89.0281 8.80327 89.2087 8.92863 89.3894 9.054C89.4008 9.06383 90.0262 9.55127 91.2653 10.5163C92.0492 11.1201 92.6152 11.6709 92.9632 12.1687ZM89.0536 5.26053C89.071 5.06666 89.0687 4.89568 89.0468 4.74758C88.9979 4.52664 88.8869 4.33181 88.7136 4.1631C88.551 3.99357 88.2995 3.92172 87.9592 3.94753C87.7039 3.96689 87.5504 4.05876 87.4987 4.22314C87.4657 4.49307 87.4621 4.79822 87.4879 5.13858C87.4984 5.27684 87.5413 5.63195 87.6168 6.20388C87.6711 6.63834 87.6982 6.99466 87.6979 7.27281C88.5307 6.54642 88.9826 5.87566 89.0536 5.26053ZM96.5867 3.7586C96.2053 3.94798 95.6397 4.17807 94.8901 4.44887C94.1404 4.71967 93.5748 4.94976 93.1934 5.13914C93.1186 5.42294 93.0963 6.04508 93.1263 7.00556C93.3014 7.05647 93.5005 7.07346 93.7239 7.05652C93.8834 7.04442 94.1314 6.99887 94.4677 6.91988C94.804 6.84089 95.052 6.79535 95.2115 6.78325C95.5093 6.76066 95.7694 6.80512 95.9918 6.91662C96.1569 7.11806 96.2418 7.25068 96.2466 7.3145C96.2523 7.38895 96.2195 7.45027 96.1483 7.49846C96.1278 7.51071 96.059 7.59081 95.9418 7.73876C95.864 7.84094 95.7609 7.89155 95.6324 7.89059C95.4131 7.96071 95.006 8.02367 94.4112 8.07947C93.9121 8.12802 93.5181 8.22208 93.2292 8.36166C93.0868 9.16406 93.0329 9.79394 93.0676 10.2513C93.091 10.5597 93.1521 10.8011 93.2509 10.9755C93.7774 11.2886 94.6555 11.3718 95.8853 11.225C95.9704 11.2186 96.058 11.1745 96.148 11.0928C96.2373 11.0004 96.3139 10.9518 96.3777 10.947C96.6707 10.8606 96.8844 11.069 97.0188 11.5723C97.0636 11.7401 97.0434 11.8967 96.9582 12.0422C96.8844 12.1976 96.7628 12.287 96.5934 12.3106C95.3097 12.4507 94.1852 12.4344 93.22 12.2615C92.9166 12.2097 92.6329 12.0654 92.3689 11.8286C92.1049 11.5919 91.9448 11.3152 91.8887 10.9986C91.7228 10.0805 91.6599 9.25087 91.7 8.50972C91.3869 8.33022 91.239 8.14353 91.2564 7.94966C91.2597 7.85313 91.3331 7.76199 91.4763 7.67625C91.6294 7.57906 91.7134 7.48711 91.7282 7.40041C91.743 7.31371 91.7472 6.80527 91.7409 5.87508C91.1364 5.80326 90.827 5.60208 90.8126 5.27155C90.7998 4.9623 90.9674 4.70355 91.3153 4.49531C91.6452 4.33123 91.9751 4.16715 92.3049 4.00307C92.6938 3.77034 93.18 3.55161 93.7635 3.3469C94.2636 3.16992 94.7693 2.99785 95.2808 2.83069C95.3332 2.81602 95.3966 2.80586 95.4711 2.80022C95.7582 2.77844 96.1017 2.86471 96.5016 3.05903C96.5154 3.10077 96.5481 3.17853 96.5995 3.2923C96.6509 3.40607 96.6786 3.48954 96.6827 3.54273C96.6891 3.62781 96.6571 3.69977 96.5867 3.7586ZM101.155 3.20356C101.252 3.49572 101.312 3.78539 101.333 4.07257C101.395 4.88091 101.159 5.79733 100.627 6.82183C100.147 7.68195 99.6719 8.54167 99.2022 9.40098C99.0948 9.67656 98.9873 9.95214 98.8798 10.2277C98.7322 10.5384 98.5267 10.7198 98.2632 10.7719C97.7256 10.8769 97.4582 10.8062 97.4609 10.56C97.4732 9.73534 97.8794 8.60272 98.6794 7.1621C99.4901 5.72067 99.9188 4.60239 99.9654 3.80725C99.9746 3.64609 99.9318 3.50493 99.837 3.38375C99.7415 3.25193 99.6139 3.19207 99.4544 3.20417C99.3161 3.21465 99.1487 3.33432 98.9521 3.56318C98.8185 3.77656 98.6022 4.09783 98.3031 4.52701C98.2359 4.62838 98.1628 4.93345 98.0837 5.44222C98.035 5.78823 97.8393 5.95818 97.4966 5.95208C97.0466 5.94341 96.7805 5.74964 96.6983 5.37078C96.6812 5.28649 96.6695 5.20181 96.663 5.11672C96.6251 4.61682 96.7901 4.11223 97.158 3.60296C97.3611 3.32012 97.7326 2.92824 98.2722 2.42733C98.6023 2.12418 98.9325 1.96541 99.2631 1.95105C99.6795 1.94086 100.067 2.04518 100.426 2.264C100.785 2.48282 101.028 2.79601 101.155 3.20356ZM98.6356 12.5087C98.6952 12.5898 98.7283 12.6728 98.7347 12.7579C98.7468 12.9175 98.6734 13.0782 98.5146 13.24C98.3557 13.4018 98.1965 13.4887 98.0369 13.5008C97.6859 13.5274 97.4031 13.3243 97.1884 12.8912C97.0496 12.6129 97.0601 12.3982 97.2198 12.247C97.3401 12.1416 97.5893 12.112 97.9672 12.1583C98.2805 12.1987 98.5033 12.3155 98.6356 12.5087ZM106.335 2.81073C106.432 3.10289 106.492 3.39256 106.514 3.67974C106.575 4.48808 106.339 5.4045 105.807 6.429C105.327 7.28912 104.852 8.14883 104.382 9.00815C104.275 9.28373 104.167 9.55931 104.06 9.83489C103.912 10.1456 103.707 10.327 103.443 10.3791C102.906 10.484 102.638 10.4134 102.641 10.1671C102.653 9.34251 103.06 8.20989 103.86 6.76927C104.67 5.32784 105.099 4.20956 105.146 3.41442C105.155 3.25326 105.112 3.1121 105.017 2.99092C104.922 2.8591 104.794 2.79924 104.635 2.81134C104.496 2.82182 104.329 2.94149 104.132 3.17035C103.999 3.38373 103.782 3.705 103.483 4.13418C103.416 4.23555 103.343 4.54062 103.264 5.04939C103.215 5.3954 103.019 5.56535 102.677 5.55925C102.227 5.55058 101.961 5.35681 101.878 4.97795C101.861 4.89366 101.85 4.80898 101.843 4.72389C101.805 4.22399 101.97 3.7194 102.338 3.21013C102.541 2.92729 102.913 2.53541 103.452 2.0345C103.782 1.73135 104.113 1.57258 104.443 1.55822C104.86 1.54803 105.247 1.65235 105.606 1.87117C105.965 2.08999 106.208 2.40317 106.335 2.81073ZM103.816 12.1159C103.875 12.1969 103.908 12.28 103.915 12.3651C103.927 12.5246 103.854 12.6853 103.695 12.8471C103.536 13.0089 103.377 13.0959 103.217 13.108C102.866 13.1346 102.583 12.9314 102.369 12.4984C102.23 12.2201 102.24 12.0054 102.4 11.8542C102.52 11.7488 102.769 11.7192 103.147 11.7654C103.461 11.8059 103.683 11.9227 103.816 12.1159Z" fill="white"/>
</svg>
