<svg width="152" height="18" viewBox="0 0 152 18" fill="none" xmlns="http://www.w3.org/2000/svg">
<path d="M7.08 2.16C6.70667 3.66667 6.02 5.62667 5.02 8.04C3.84667 10.8533 3.09333 12.7933 2.76 13.86C2.69333 14.0733 2.66 14.34 2.66 14.66C2.67333 15.1 2.67333 15.38 2.66 15.5C2.62 15.9667 2.37333 16.2 1.92 16.2C1.69333 16.2267 1.44667 16.1467 1.18 15.96C0.926667 15.7867 0.806667 15.6 0.82 15.4C0.86 14.4267 1.10667 13.3133 1.56 12.06C1.97333 10.9933 2.38667 9.92667 2.8 8.86C1.85333 6.32667 1.04667 4.47333 0.38 3.3C0.34 3.23333 0.32 3.16667 0.32 3.1C0.32 2.95333 0.4 2.82 0.56 2.7C0.733333 2.56667 0.9 2.5 1.06 2.5C1.08667 2.5 1.34 2.57333 1.82 2.72C2.15333 3.22667 2.5 3.88 2.86 4.68C3.16667 5.36 3.46667 6.04 3.76 6.72C4.02667 5.92 4.29333 5.12667 4.56 4.34C4.86667 3.42 5.20667 2.66 5.58 2.06C5.68667 1.87333 5.87333 1.78 6.14 1.78C6.51333 1.78 6.82667 1.90667 7.08 2.16ZM14.2152 9.68C13.4285 11.4533 12.3152 12.5067 10.8752 12.84C10.7018 12.88 10.5285 12.9 10.3552 12.9C9.59516 12.9 8.82849 12.4867 8.05516 11.66C7.53516 11.1 7.27516 10.3733 7.27516 9.48C7.27516 8.49333 7.56849 7.43333 8.15516 6.3C8.40849 5.82 8.71516 5.40667 9.07516 5.06C9.48849 4.64667 9.88182 4.44 10.2552 4.44C10.4685 4.44 10.6685 4.52 10.8552 4.68C11.0418 4.84 11.5418 5.05333 12.3552 5.32C12.9952 5.53333 13.4485 5.89333 13.7152 6.4C14.1818 7.29333 14.4152 8.06 14.4152 8.7C14.4152 9.06 14.3485 9.38667 14.2152 9.68ZM12.6152 8.44C12.5218 7.46667 12.2618 6.88667 11.8352 6.7C11.7685 6.67333 11.7085 6.66 11.6552 6.66C11.4952 6.66 11.2952 6.79333 11.0552 7.06C10.7885 7.36667 10.5818 7.54667 10.4352 7.6C10.3418 7.64 10.2085 7.6 10.0352 7.48C9.86182 7.36 9.74849 7.3 9.69516 7.3C9.65516 7.3 9.62182 7.31333 9.59516 7.34C9.12849 7.74 8.89516 8.36 8.89516 9.2C8.89516 9.77333 9.02849 10.26 9.29516 10.66C9.66849 11.2067 9.98182 11.48 10.2352 11.48C10.8218 11.48 11.3885 11.1133 11.9352 10.38C12.4552 9.68667 12.6818 9.04 12.6152 8.44ZM21.8609 3.1C21.7676 4.03333 21.5009 5.28 21.0609 6.84C20.4609 8.93333 20.1143 10.2 20.0209 10.64C19.7276 11.9867 19.1676 13.2133 18.3409 14.32C17.8209 15.0267 17.2209 15.3733 16.5409 15.36C15.9409 15.3467 15.4943 14.9667 15.2009 14.22C14.6943 12.9667 14.4409 11.4933 14.4409 9.8C14.4409 8.82667 14.5343 7.57333 14.7209 6.04C14.7076 6.17333 14.7009 5.76 14.7009 4.8C14.7009 3.97333 15.0209 3.56 15.6609 3.56C15.7943 3.56 15.9343 3.6 16.0809 3.68C16.2409 3.74667 16.3943 3.82 16.5409 3.9C16.5543 4.58 16.5343 5.58 16.4809 6.9C16.4143 8.31333 16.3809 9.33333 16.3809 9.96C16.3809 10.6267 16.4009 11.2333 16.4409 11.78C16.4676 12.06 16.5876 12.5933 16.8009 13.38C17.3609 12.7533 17.8009 11.92 18.1209 10.88C18.2276 10.5333 18.4409 9.58667 18.7609 8.04C19.0143 6.86667 19.3009 5.94667 19.6209 5.28C19.7143 5.09333 19.7943 4.74 19.8609 4.22C19.9276 3.7 20.0076 3.34 20.1009 3.14C20.2476 2.82 20.5009 2.66 20.8609 2.66C21.3276 2.66 21.6609 2.80667 21.8609 3.1ZM30.1644 14.14C30.2044 14.1933 30.2244 14.2533 30.2244 14.32C30.2244 14.6267 29.9044 14.86 29.2644 15.02C28.5577 14.4733 27.6777 13.6333 26.6244 12.5C25.451 11.2333 24.5777 10.3533 24.0044 9.86C23.9644 10.2067 23.891 11.1133 23.7844 12.58C23.7177 13.6867 23.5977 14.5667 23.4244 15.22C23.3977 15.22 23.311 15.2533 23.1644 15.32C23.031 15.3867 22.9177 15.4067 22.8244 15.38C22.2377 15.2467 21.9444 14.84 21.9444 14.16C21.9444 13.96 21.971 13.6933 22.0244 13.36C22.0777 12.9733 22.111 12.7333 22.1244 12.64C22.1777 11.8667 22.211 10.9467 22.2244 9.88V7.7C22.2244 5.88667 22.3244 4.36 22.5244 3.12C22.6577 2.29333 23.4377 1.91333 24.8644 1.98C25.5844 2.00667 26.211 2.36667 26.7444 3.06C27.2377 3.7 27.4844 4.39333 27.4844 5.14C27.4844 5.76667 27.251 6.39333 26.7844 7.02C26.3844 7.58 25.891 8.02 25.3044 8.34C25.0644 8.47333 24.9444 8.62 24.9444 8.78C24.9444 8.95333 25.0844 9.16 25.3644 9.4C25.5777 9.57333 25.791 9.74667 26.0044 9.92C26.0177 9.93333 26.751 10.6 28.2044 11.92C29.1244 12.7467 29.7777 13.4867 30.1644 14.14ZM25.9444 5.16C25.9844 4.92 25.9977 4.70667 25.9844 4.52C25.9444 4.24 25.8244 3.98667 25.6244 3.76C25.4377 3.53333 25.131 3.42 24.7044 3.42C24.3844 3.42 24.1844 3.52 24.1044 3.72C24.0377 4.05333 24.0044 4.43333 24.0044 4.86C24.0044 5.03333 24.0244 5.48 24.0644 6.2C24.091 6.74667 24.091 7.19333 24.0644 7.54C25.171 6.71333 25.7977 5.92 25.9444 5.16ZM39.0533 11.68C39.0266 11.6933 38.2466 12.2467 36.7133 13.34C35.8199 13.98 35.0266 14.4533 34.3333 14.76C34.2533 14.8 34.1733 14.82 34.0933 14.82C33.9066 14.82 33.7333 14.7 33.5733 14.46C33.3333 14.14 33.2066 13.9733 33.1933 13.96C33.1666 12.7867 33.2399 11.1533 33.4133 9.06C33.6133 6.83333 33.7133 5.22667 33.7133 4.24C33.7133 3.56 33.6866 2.92 33.6333 2.32C33.8066 2.14667 34.0266 2.06 34.2933 2.06C34.7999 2.06 35.0933 2.24667 35.1733 2.62C35.2133 3.71333 35.1666 5.35333 35.0333 7.54C34.8999 9.71333 34.8466 11.3467 34.8733 12.44C35.2466 12.28 35.7333 12 36.3333 11.6C36.9866 11.1467 37.4599 10.8467 37.7533 10.7C37.8199 10.7 37.9333 10.6867 38.0933 10.66C38.2666 10.6333 38.3933 10.62 38.4733 10.62C38.7399 10.62 38.9333 10.7267 39.0533 10.94C39.2133 11.2333 39.2133 11.48 39.0533 11.68ZM45.9909 9.68C45.2043 11.4533 44.0909 12.5067 42.6509 12.84C42.4776 12.88 42.3043 12.9 42.1309 12.9C41.3709 12.9 40.6043 12.4867 39.8309 11.66C39.3109 11.1 39.0509 10.3733 39.0509 9.48C39.0509 8.49333 39.3443 7.43333 39.9309 6.3C40.1843 5.82 40.4909 5.40667 40.8509 5.06C41.2643 4.64667 41.6576 4.44 42.0309 4.44C42.2443 4.44 42.4443 4.52 42.6309 4.68C42.8176 4.84 43.3176 5.05333 44.1309 5.32C44.7709 5.53333 45.2243 5.89333 45.4909 6.4C45.9576 7.29333 46.1909 8.06 46.1909 8.7C46.1909 9.06 46.1243 9.38667 45.9909 9.68ZM44.3909 8.44C44.2976 7.46667 44.0376 6.88667 43.6109 6.7C43.5443 6.67333 43.4843 6.66 43.4309 6.66C43.2709 6.66 43.0709 6.79333 42.8309 7.06C42.5643 7.36667 42.3576 7.54667 42.2109 7.6C42.1176 7.64 41.9843 7.6 41.8109 7.48C41.6376 7.36 41.5243 7.3 41.4709 7.3C41.4309 7.3 41.3976 7.31333 41.3709 7.34C40.9043 7.74 40.6709 8.36 40.6709 9.2C40.6709 9.77333 40.8043 10.26 41.0709 10.66C41.4443 11.2067 41.7576 11.48 42.0109 11.48C42.5976 11.48 43.1643 11.1133 43.7109 10.38C44.2309 9.68667 44.4576 9.04 44.3909 8.44ZM51.9167 1.94C51.9167 2.3 51.6767 2.52667 51.1967 2.62C50.5701 2.74 50.1834 2.88 50.0367 3.04C48.5434 4.61333 47.7967 6.64667 47.7967 9.14C47.7967 10.3133 47.9834 11.42 48.3567 12.46C48.6634 13.3133 48.8834 13.8733 49.0167 14.14C49.3501 14.7933 49.7567 15.26 50.2367 15.54C50.4367 15.6333 50.6367 15.72 50.8367 15.8C51.0501 15.92 51.1567 16.0867 51.1567 16.3C51.1567 16.5133 51.0834 16.7067 50.9367 16.88C50.8034 17.0533 50.6567 17.12 50.4967 17.08C50.3234 17.0533 50.0567 16.9667 49.6967 16.82C49.0567 16.4467 48.3634 15.6533 47.6167 14.44C47.4301 14.1333 47.2367 13.82 47.0367 13.5C46.8501 13.1667 46.7101 12.8533 46.6167 12.56C46.5501 12.3467 46.4367 11.4867 46.2767 9.98C46.2234 9.51333 46.1967 9.06 46.1967 8.62C46.1967 6.26 46.8834 4.25333 48.2567 2.6C49.0567 1.64 49.8901 1.16 50.7567 1.16C51.1301 1.16 51.4701 1.27333 51.7767 1.5C51.8701 1.56667 51.9167 1.71333 51.9167 1.94ZM58.3825 13.04C58.4625 13.2533 58.5025 13.44 58.5025 13.6C58.5025 13.8667 58.3892 14.1 58.1625 14.3C57.9358 14.5 57.7825 14.5933 57.7025 14.58C57.0492 14.46 56.6358 13.9333 56.4625 13C56.2758 11.9867 56.0558 11.14 55.8025 10.46C55.3492 10.5 54.8958 10.54 54.4425 10.58C53.9225 10.6467 53.5158 10.8067 53.2225 11.06C53.0758 11.4733 52.8825 12.2067 52.6425 13.26C52.4158 14.2333 52.1958 14.9733 51.9825 15.48C51.8758 15.72 51.6492 15.7867 51.3025 15.68C50.8625 15.5333 50.6292 15.3333 50.6025 15.08C50.5625 14.5733 50.7092 13.8933 51.0425 13.04C51.4425 12.0667 51.6625 11.3733 51.7025 10.96C51.7158 10.84 51.6292 10.7067 51.4425 10.56C51.2558 10.4133 51.1625 10.3 51.1625 10.22C51.1625 10.1533 51.1892 10.0867 51.2425 10.02C51.3092 9.94 51.4492 9.88 51.6625 9.84C51.8892 9.78667 52.0158 9.71333 52.0425 9.62C52.2825 8.95333 52.6625 7.71333 53.1825 5.9C53.6225 4.32667 54.0158 3.12 54.3625 2.28C54.4425 2.09333 54.6092 2 54.8625 2C55.0492 2 55.2158 2.06 55.3625 2.18C55.7358 2.5 55.9758 2.98 56.0825 3.62C56.1625 4.16667 56.2358 4.71333 56.3025 5.26C56.9692 8.40667 57.6625 11 58.3825 13.04ZM55.4625 9.22C55.4225 8.72667 55.3358 8.17333 55.2025 7.56C55.0692 7.02667 54.9425 6.49333 54.8225 5.96C54.4225 7.06667 54.0758 8.17333 53.7825 9.28C53.9958 9.24 54.5558 9.22 55.4625 9.22ZM68.7622 1.54C68.6422 2.02 68.4155 2.3 68.0822 2.38C67.2155 2.59333 65.7089 2.87333 63.5622 3.22C63.2955 6.54 63.1622 9.30667 63.1622 11.52C63.1622 12.36 63.1755 13.1867 63.2022 14C63.2155 14.2533 63.2022 14.4467 63.1622 14.58C63.0955 14.7933 62.9622 14.8933 62.7622 14.88C62.3755 14.8667 62.0555 14.7 61.8022 14.38C61.5489 14.0733 61.4089 13.7267 61.3822 13.34C61.3555 12.8467 61.3422 12.3267 61.3422 11.78C61.3422 10.9 61.4022 9.50667 61.5222 7.6C61.6422 5.77333 61.6955 4.38 61.6822 3.42C61.3222 3.39333 60.8222 3.42667 60.1822 3.52C59.4489 3.62667 58.9422 3.68 58.6622 3.68C58.0089 3.68 57.4755 3.50667 57.0622 3.16C56.9022 2.81333 56.8222 2.63333 56.8222 2.62C56.8222 2.52667 56.8689 2.42667 56.9622 2.32C57.3889 2.17333 58.2622 2.04 59.5822 1.92C60.7422 1.8 61.6089 1.58667 62.1822 1.28C62.6489 1.42667 63.1822 1.5 63.7822 1.5C64.3822 1.5 64.9555 1.42667 65.5022 1.28C65.6622 1.26667 66.0689 1.17333 66.7222 0.999999C67.2022 0.879999 67.6022 0.839999 67.9222 0.88C68.1622 0.88 68.2622 0.98 68.2222 1.18C68.5822 1.18 68.7622 1.3 68.7622 1.54ZM67.9345 3.88C67.9612 4.26667 67.9745 4.66667 67.9745 5.08C67.9745 5.98667 67.8812 7.35333 67.6945 9.18C67.5079 11.0067 67.4145 12.3867 67.4145 13.32C67.4145 13.6667 67.4212 14.0067 67.4345 14.34C67.3145 14.7133 67.0545 14.8933 66.6545 14.88C66.0812 14.8533 65.7679 14.6067 65.7145 14.14C65.6612 13.6733 65.6345 13.18 65.6345 12.66C65.6345 11.7533 65.7412 10.4 65.9545 8.6C66.1812 6.8 66.2945 5.45333 66.2945 4.56C66.2945 4.21333 66.2812 3.87333 66.2545 3.54C66.3879 3.28667 66.6145 3.16 66.9345 3.16C67.1879 3.16 67.4412 3.23333 67.6945 3.38C67.7479 3.34 67.7879 3.32 67.8145 3.32C67.8545 3.32 67.8745 3.38667 67.8745 3.52C67.8612 3.68 67.8612 3.77333 67.8745 3.8C67.8879 3.84 67.9079 3.86667 67.9345 3.88ZM75.423 9.68C74.6363 11.4533 73.523 12.5067 72.083 12.84C71.9096 12.88 71.7363 12.9 71.563 12.9C70.803 12.9 70.0363 12.4867 69.263 11.66C68.743 11.1 68.483 10.3733 68.483 9.48C68.483 8.49333 68.7763 7.43333 69.363 6.3C69.6163 5.82 69.923 5.40667 70.283 5.06C70.6963 4.64667 71.0896 4.44 71.463 4.44C71.6763 4.44 71.8763 4.52 72.063 4.68C72.2496 4.84 72.7496 5.05333 73.563 5.32C74.203 5.53333 74.6563 5.89333 74.923 6.4C75.3896 7.29333 75.623 8.06 75.623 8.7C75.623 9.06 75.5563 9.38667 75.423 9.68ZM73.823 8.44C73.7296 7.46667 73.4696 6.88667 73.043 6.7C72.9763 6.67333 72.9163 6.66 72.863 6.66C72.703 6.66 72.503 6.79333 72.263 7.06C71.9963 7.36667 71.7896 7.54667 71.643 7.6C71.5496 7.64 71.4163 7.6 71.243 7.48C71.0696 7.36 70.9563 7.3 70.903 7.3C70.863 7.3 70.8296 7.31333 70.803 7.34C70.3363 7.74 70.103 8.36 70.103 9.2C70.103 9.77333 70.2363 10.26 70.503 10.66C70.8763 11.2067 71.1896 11.48 71.443 11.48C72.0296 11.48 72.5963 11.1133 73.143 10.38C73.663 9.68667 73.8896 9.04 73.823 8.44ZM84.3487 1.88C84.1621 3.66667 83.9821 5.46 83.8087 7.26C83.5821 9.39333 83.4687 11.1733 83.4687 12.6C83.4687 13.0667 83.4821 13.5267 83.5087 13.98C83.5221 14.1933 83.4421 14.38 83.2687 14.54C83.1087 14.7 82.9221 14.78 82.7087 14.78C82.2954 14.78 81.9487 14.5 81.6687 13.94C80.8154 12.2733 79.7554 9.66 78.4887 6.1C78.4621 6.02 78.4287 5.98 78.3887 5.98C78.2954 5.98 78.2354 6.07333 78.2087 6.26C77.9821 8.16667 77.8687 10.1733 77.8687 12.28C77.8687 13.2933 77.8954 14.3267 77.9487 15.38C77.9621 15.7667 77.8487 16.0333 77.6087 16.18C77.5154 16.2733 77.4154 16.32 77.3087 16.32C77.2154 16.32 77.0954 16.28 76.9487 16.2C76.7487 16.1067 76.6221 16.0467 76.5687 16.02C76.3954 15.9667 76.2887 15.8067 76.2487 15.54C76.2354 15.3267 76.2221 15.1067 76.2087 14.88C76.1687 14.1333 76.1487 13.3533 76.1487 12.54C76.1487 11.1267 76.2287 9.36 76.3887 7.24C76.6421 4.01333 76.7821 2.22667 76.8087 1.88C76.8221 1.58667 77.0687 1.44 77.5487 1.44C77.7754 1.41333 78.1087 1.58 78.5487 1.94C78.9754 2.75333 79.5021 4.07333 80.1287 5.9C80.7287 7.64667 81.2754 8.97333 81.7687 9.88C81.9687 8.10667 82.2821 5.42667 82.7087 1.84C82.7487 1.57333 82.9421 1.44 83.2887 1.44C83.4087 1.44 83.5487 1.46 83.7087 1.5C83.9221 1.55333 84.0487 1.58667 84.0887 1.6C84.2221 1.65333 84.3087 1.74667 84.3487 1.88ZM91.7809 3.88C91.8076 4.26667 91.8209 4.66667 91.8209 5.08C91.8209 5.98667 91.7276 7.35333 91.5409 9.18C91.3543 11.0067 91.2609 12.3867 91.2609 13.32C91.2609 13.6667 91.2676 14.0067 91.2809 14.34C91.1609 14.7133 90.9009 14.8933 90.5009 14.88C89.9276 14.8533 89.6143 14.6067 89.5609 14.14C89.5076 13.6733 89.4809 13.18 89.4809 12.66C89.4809 11.7533 89.5876 10.4 89.8009 8.6C90.0276 6.8 90.1409 5.45333 90.1409 4.56C90.1409 4.21333 90.1276 3.87333 90.1009 3.54C90.2343 3.28667 90.4609 3.16 90.7809 3.16C91.0343 3.16 91.2876 3.23333 91.5409 3.38C91.5943 3.34 91.6343 3.32 91.6609 3.32C91.7009 3.32 91.7209 3.38667 91.7209 3.52C91.7076 3.68 91.7076 3.77333 91.7209 3.8C91.7343 3.84 91.7543 3.86667 91.7809 3.88ZM96.7294 1.9C96.7294 2.16667 96.536 2.4 96.1494 2.6C96.0427 2.65333 95.9294 2.66 95.8094 2.62C95.6227 2.56667 95.5227 2.54 95.5094 2.54C95.4294 2.54 95.3494 2.58 95.2694 2.66C94.5494 3.38 94.1894 4.26 94.1894 5.3C94.1894 5.68667 94.2494 6.04667 94.3694 6.38C94.4227 6.52667 94.9294 7.56 95.8894 9.48C96.5294 10.76 96.8494 11.8467 96.8494 12.74C96.8494 13.4733 96.6694 14.18 96.3094 14.86C96.1894 15.0867 95.8894 15.38 95.4094 15.74C95.0227 16.02 94.676 16.16 94.3694 16.16C94.2494 16.16 94.136 16.14 94.0294 16.1C93.6294 15.9267 93.4294 15.7067 93.4294 15.44C93.4294 15.28 93.5294 15.0867 93.7294 14.86C93.7827 14.7933 93.9094 14.7533 94.1094 14.74C94.3094 14.7267 94.4427 14.6467 94.5094 14.5C94.7894 13.9133 94.9294 13.3133 94.9294 12.7C94.9294 11.8333 94.496 10.58 93.6294 8.94C92.776 7.28667 92.3494 5.96667 92.3494 4.98C92.3494 4.16667 92.5094 3.44 92.8294 2.8C93.1894 2.06667 93.7027 1.54 94.3694 1.22C94.676 1.07333 94.976 0.999999 95.2694 0.999999C95.8294 0.999999 96.2494 1.15333 96.5294 1.46C96.6627 1.60667 96.7294 1.75333 96.7294 1.9ZM107.636 1.94C107.636 2.3 107.396 2.52667 106.916 2.62C106.29 2.74 105.903 2.88 105.756 3.04C104.263 4.61333 103.516 6.64667 103.516 9.14C103.516 10.3133 103.703 11.42 104.076 12.46C104.383 13.3133 104.603 13.8733 104.736 14.14C105.07 14.7933 105.476 15.26 105.956 15.54C106.156 15.6333 106.356 15.72 106.556 15.8C106.77 15.92 106.876 16.0867 106.876 16.3C106.876 16.5133 106.803 16.7067 106.656 16.88C106.523 17.0533 106.376 17.12 106.216 17.08C106.043 17.0533 105.776 16.9667 105.416 16.82C104.776 16.4467 104.083 15.6533 103.336 14.44C103.15 14.1333 102.956 13.82 102.756 13.5C102.57 13.1667 102.43 12.8533 102.336 12.56C102.27 12.3467 102.156 11.4867 101.996 9.98C101.943 9.51333 101.916 9.06 101.916 8.62C101.916 6.26 102.603 4.25333 103.976 2.6C104.776 1.64 105.61 1.16 106.476 1.16C106.85 1.16 107.19 1.27333 107.496 1.5C107.59 1.56667 107.636 1.71333 107.636 1.94ZM113.702 9.68C112.915 11.4533 111.802 12.5067 110.362 12.84C110.189 12.88 110.015 12.9 109.842 12.9C109.082 12.9 108.315 12.4867 107.542 11.66C107.022 11.1 106.762 10.3733 106.762 9.48C106.762 8.49333 107.055 7.43333 107.642 6.3C107.895 5.82 108.202 5.40667 108.562 5.06C108.975 4.64667 109.369 4.44 109.742 4.44C109.955 4.44 110.155 4.52 110.342 4.68C110.529 4.84 111.029 5.05333 111.842 5.32C112.482 5.53333 112.935 5.89333 113.202 6.4C113.669 7.29333 113.902 8.06 113.902 8.7C113.902 9.06 113.835 9.38667 113.702 9.68ZM112.102 8.44C112.009 7.46667 111.749 6.88667 111.322 6.7C111.255 6.67333 111.195 6.66 111.142 6.66C110.982 6.66 110.782 6.79333 110.542 7.06C110.275 7.36667 110.069 7.54667 109.922 7.6C109.829 7.64 109.695 7.6 109.522 7.48C109.349 7.36 109.235 7.3 109.182 7.3C109.142 7.3 109.109 7.31333 109.082 7.34C108.615 7.74 108.382 8.36 108.382 9.2C108.382 9.77333 108.515 10.26 108.782 10.66C109.155 11.2067 109.469 11.48 109.722 11.48C110.309 11.48 110.875 11.1133 111.422 10.38C111.942 9.68667 112.169 9.04 112.102 8.44ZM119.928 11.68C119.901 11.6933 119.121 12.2467 117.588 13.34C116.694 13.98 115.901 14.4533 115.208 14.76C115.128 14.8 115.048 14.82 114.968 14.82C114.781 14.82 114.608 14.7 114.448 14.46C114.208 14.14 114.081 13.9733 114.068 13.96C114.041 12.7867 114.114 11.1533 114.288 9.06C114.488 6.83333 114.588 5.22667 114.588 4.24C114.588 3.56 114.561 2.92 114.508 2.32C114.681 2.14667 114.901 2.06 115.168 2.06C115.674 2.06 115.968 2.24667 116.048 2.62C116.088 3.71333 116.041 5.35333 115.908 7.54C115.774 9.71333 115.721 11.3467 115.748 12.44C116.121 12.28 116.608 12 117.208 11.6C117.861 11.1467 118.334 10.8467 118.628 10.7C118.694 10.7 118.808 10.6867 118.968 10.66C119.141 10.6333 119.268 10.62 119.348 10.62C119.614 10.62 119.808 10.7267 119.928 10.94C120.088 11.2333 120.088 11.48 119.928 11.68ZM126.865 9.68C126.079 11.4533 124.965 12.5067 123.525 12.84C123.352 12.88 123.179 12.9 123.005 12.9C122.245 12.9 121.479 12.4867 120.705 11.66C120.185 11.1 119.925 10.3733 119.925 9.48C119.925 8.49333 120.219 7.43333 120.805 6.3C121.059 5.82 121.365 5.40667 121.725 5.06C122.139 4.64667 122.532 4.44 122.905 4.44C123.119 4.44 123.319 4.52 123.505 4.68C123.692 4.84 124.192 5.05333 125.005 5.32C125.645 5.53333 126.099 5.89333 126.365 6.4C126.832 7.29333 127.065 8.06 127.065 8.7C127.065 9.06 126.999 9.38667 126.865 9.68ZM125.265 8.44C125.172 7.46667 124.912 6.88667 124.485 6.7C124.419 6.67333 124.359 6.66 124.305 6.66C124.145 6.66 123.945 6.79333 123.705 7.06C123.439 7.36667 123.232 7.54667 123.085 7.6C122.992 7.64 122.859 7.6 122.685 7.48C122.512 7.36 122.399 7.3 122.345 7.3C122.305 7.3 122.272 7.31333 122.245 7.34C121.779 7.74 121.545 8.36 121.545 9.2C121.545 9.77333 121.679 10.26 121.945 10.66C122.319 11.2067 122.632 11.48 122.885 11.48C123.472 11.48 124.039 11.1133 124.585 10.38C125.105 9.68667 125.332 9.04 125.265 8.44ZM135.471 14.14C135.511 14.1933 135.531 14.2533 135.531 14.32C135.531 14.6267 135.211 14.86 134.571 15.02C133.865 14.4733 132.985 13.6333 131.931 12.5C130.758 11.2333 129.885 10.3533 129.311 9.86C129.271 10.2067 129.198 11.1133 129.091 12.58C129.025 13.6867 128.905 14.5667 128.731 15.22C128.705 15.22 128.618 15.2533 128.471 15.32C128.338 15.3867 128.225 15.4067 128.131 15.38C127.545 15.2467 127.251 14.84 127.251 14.16C127.251 13.96 127.278 13.6933 127.331 13.36C127.385 12.9733 127.418 12.7333 127.431 12.64C127.485 11.8667 127.518 10.9467 127.531 9.88V7.7C127.531 5.88667 127.631 4.36 127.831 3.12C127.965 2.29333 128.745 1.91333 130.171 1.98C130.891 2.00667 131.518 2.36667 132.051 3.06C132.545 3.7 132.791 4.39333 132.791 5.14C132.791 5.76667 132.558 6.39333 132.091 7.02C131.691 7.58 131.198 8.02 130.611 8.34C130.371 8.47333 130.251 8.62 130.251 8.78C130.251 8.95333 130.391 9.16 130.671 9.4C130.885 9.57333 131.098 9.74667 131.311 9.92C131.325 9.93333 132.058 10.6 133.511 11.92C134.431 12.7467 135.085 13.4867 135.471 14.14ZM131.251 5.16C131.291 4.92 131.305 4.70667 131.291 4.52C131.251 4.24 131.131 3.98667 130.931 3.76C130.745 3.53333 130.438 3.42 130.011 3.42C129.691 3.42 129.491 3.52 129.411 3.72C129.345 4.05333 129.311 4.43333 129.311 4.86C129.311 5.03333 129.331 5.48 129.371 6.2C129.398 6.74667 129.398 7.19333 129.371 7.54C130.478 6.71333 131.105 5.92 131.251 5.16ZM140.89 4C140.397 4.2 139.67 4.43333 138.71 4.7C137.75 4.96667 137.023 5.2 136.53 5.4C136.41 5.74667 136.323 6.52 136.27 7.72C136.483 7.8 136.73 7.84 137.01 7.84C137.21 7.84 137.523 7.80667 137.95 7.74C138.377 7.67333 138.69 7.64 138.89 7.64C139.263 7.64 139.583 7.72 139.85 7.88C140.037 8.14667 140.13 8.32 140.13 8.4C140.13 8.49333 140.083 8.56667 139.99 8.62C139.963 8.63333 139.87 8.72667 139.71 8.9C139.603 9.02 139.47 9.07333 139.31 9.06C139.03 9.12667 138.517 9.16667 137.77 9.18C137.143 9.19333 136.643 9.27333 136.27 9.42C136.017 10.4067 135.89 11.1867 135.89 11.76C135.89 12.1467 135.943 12.4533 136.05 12.68C136.677 13.12 137.763 13.3067 139.31 13.24C139.417 13.24 139.53 13.1933 139.65 13.1C139.77 12.9933 139.87 12.94 139.95 12.94C140.323 12.86 140.57 13.14 140.69 13.78C140.73 13.9933 140.69 14.1867 140.57 14.36C140.463 14.5467 140.303 14.6467 140.09 14.66C138.477 14.7133 137.077 14.5867 135.89 14.28C135.517 14.1867 135.177 13.98 134.87 13.66C134.563 13.34 134.39 12.98 134.35 12.58C134.23 11.42 134.23 10.38 134.35 9.46C133.977 9.20667 133.81 8.96 133.85 8.72C133.863 8.6 133.963 8.49333 134.15 8.4C134.35 8.29333 134.463 8.18667 134.49 8.08C134.517 7.97333 134.57 7.34 134.65 6.18C133.903 6.03333 133.537 5.75333 133.55 5.34C133.563 4.95333 133.797 4.64667 134.25 4.42C134.677 4.24667 135.103 4.07333 135.53 3.9C136.037 3.64667 136.663 3.42 137.41 3.22C138.05 3.04667 138.697 2.88 139.35 2.72C139.417 2.70667 139.497 2.7 139.59 2.7C139.95 2.7 140.37 2.84 140.85 3.12C140.863 3.17333 140.897 3.27333 140.95 3.42C141.003 3.56667 141.03 3.67333 141.03 3.74C141.03 3.84667 140.983 3.93333 140.89 4ZM146.704 9.58C146.571 9.88667 146.444 10.1933 146.324 10.5C146.164 10.86 145.991 11.1467 145.804 11.36C145.391 11.88 144.978 12.3933 144.564 12.9C144.071 13.5133 143.624 13.94 143.224 14.18C143.091 14.34 142.944 14.5067 142.784 14.68C142.624 14.8533 142.464 14.94 142.304 14.94C142.224 14.94 142.131 14.92 142.024 14.88C141.918 14.84 141.798 14.7933 141.664 14.74C141.544 14.6867 141.458 14.6 141.404 14.48C141.364 13.92 141.344 13.32 141.344 12.68C141.344 12.0267 141.371 11.0533 141.424 9.76C141.478 8.46667 141.504 7.49333 141.504 6.84C141.504 5.97333 141.471 5.18 141.404 4.46C141.391 4.44667 141.244 4.29333 140.964 4C140.791 3.82667 140.704 3.66667 140.704 3.52C140.704 3.45333 140.718 3.38667 140.744 3.32C140.811 3.16 140.958 3.06667 141.184 3.04C141.358 3.01333 141.531 2.99333 141.704 2.98C142.824 3.22 143.998 3.84667 145.224 4.86C145.544 5.12667 145.804 5.40667 146.004 5.7C146.644 6.64667 146.964 7.53333 146.964 8.36C146.964 8.78667 146.878 9.19333 146.704 9.58ZM145.264 7.44C145.144 6.6 144.431 5.86 143.124 5.22C143.031 7.44667 143.004 9.80667 143.044 12.3C144.551 10.7933 145.304 9.36 145.304 8C145.304 7.81333 145.291 7.62667 145.264 7.44ZM151.867 2.2C151.787 3.13333 151.447 4.81333 150.847 7.24C150.327 9.34667 150.087 11.0733 150.127 12.42C150.127 12.54 150.053 12.6533 149.907 12.76C149.773 12.8533 149.647 12.8867 149.527 12.86C148.847 12.7267 148.487 12.3933 148.447 11.86C148.433 11.58 148.427 11.3 148.427 11.02C148.427 9.76667 148.627 8.23333 149.027 6.42C149.64 3.74 149.973 2.22 150.027 1.86C150.053 1.7 150.153 1.58667 150.327 1.52C150.5 1.45333 150.667 1.44667 150.827 1.5C151.053 1.56667 151.28 1.63333 151.507 1.7C151.76 1.80667 151.88 1.97333 151.867 2.2ZM149.927 14.4C149.953 14.5867 149.927 14.7667 149.847 14.94C149.767 15.1267 149.667 15.22 149.547 15.22C149.44 15.2333 149.36 15.2667 149.307 15.32C149.253 15.3733 149.2 15.3933 149.147 15.38C148.44 15.1133 148.04 14.7667 147.947 14.34C147.907 14.1533 148.033 13.9667 148.327 13.78C148.62 13.58 148.827 13.4867 148.947 13.5C149.16 13.5267 149.367 13.62 149.567 13.78C149.78 13.94 149.9 14.1467 149.927 14.4Z" fill="#424242"/>
</svg>
