<svg width="72" height="21" viewBox="0 0 72 21" fill="none" xmlns="http://www.w3.org/2000/svg">
<path d="M9.27794 12.5978C8.98522 13.5154 8.83415 14.6296 8.82473 15.9406C8.84233 17.0758 8.86659 18.2104 8.8975 19.3446C8.89564 19.679 8.68861 19.8615 8.27641 19.8922C8.15675 19.9011 8.04224 19.8896 7.9329 19.8576C7.34334 19.6608 7.02432 19.2366 6.97584 18.5851C6.96199 18.3989 6.96781 18.1177 6.9933 17.7415C7.01779 17.3519 7.02361 17.0707 7.01075 16.8979C7.03525 16.5083 7.05869 15.9249 7.08109 15.1478C6.22794 16.0803 5.23878 16.8024 4.11364 17.314C3.95804 17.379 3.80046 17.4175 3.6409 17.4294C3.02926 17.4749 2.43843 17.1712 1.86842 16.5184C1.5472 16.1545 1.36533 15.6867 1.32279 15.115C1.28519 14.6097 1.35419 14.0096 1.52978 13.3147C2.07423 11.1082 3.04098 8.91707 4.43004 6.74134C5.12507 5.66012 5.77175 5.09726 6.3701 5.05274C6.90196 5.01316 7.21597 5.19035 7.31214 5.5843C7.39006 5.91276 7.29484 6.16051 7.0265 6.32755C6.57991 6.61481 6.34431 6.77272 6.3197 6.8013C5.29479 8.12098 4.38967 9.79275 3.60434 11.8166C3.12261 13.0691 2.91737 14.1741 2.9886 15.1314C3.00146 15.3043 3.02097 15.4766 3.04713 15.6485C3.07471 15.6598 3.11954 15.7233 3.18163 15.839C3.24274 15.9415 3.31834 15.9693 3.40845 15.9224C4.2603 15.5114 5.51554 14.5022 7.17417 12.8947C7.29923 12.7784 7.42938 12.4612 7.56464 11.9431C7.66991 11.5609 7.8954 11.3569 8.24111 11.3312C8.13474 11.3391 8.24012 11.3179 8.55726 11.2676C8.71484 11.2291 8.82319 11.2478 8.88231 11.3236C9.16265 11.6771 9.31172 11.9736 9.32953 12.2129C9.33843 12.3326 9.32124 12.4609 9.27794 12.5978ZM17.0118 12.7042C16.3589 14.531 15.3268 15.6641 13.9155 16.1033C13.7456 16.1561 13.5743 16.1889 13.4014 16.2018C12.6435 16.2581 11.8483 15.9028 11.0157 15.1358C10.4556 14.616 10.1424 13.9106 10.0761 13.0197C10.0029 12.0358 10.2168 10.9569 10.7178 9.78319C10.9348 9.28571 11.2099 8.85077 11.5432 8.47834C11.9247 8.03548 12.3017 7.8002 12.674 7.7725C12.8867 7.75667 13.0921 7.82161 13.2901 7.96732C13.4881 8.11303 14.0026 8.28867 14.8335 8.49426C15.4875 8.65952 15.9663 8.98489 16.2699 9.47037C16.8015 10.3266 17.0911 11.0739 17.1386 11.7121C17.1653 12.0711 17.123 12.4018 17.0118 12.7042ZM15.3243 11.5864C15.159 10.6226 14.8566 10.0635 14.4173 9.90904C14.3488 9.88739 14.288 9.87854 14.2348 9.8825C14.0753 9.89437 13.8857 10.0422 13.6662 10.3259C13.423 10.6515 13.2302 10.8464 13.0879 10.9104C12.9978 10.9572 12.8619 10.9273 12.6801 10.8204C12.4984 10.7136 12.3809 10.6622 12.3277 10.6662C12.2878 10.6691 12.2556 10.6849 12.231 10.7135C11.7953 11.147 11.6086 11.7826 11.6709 12.6203C11.7134 13.192 11.8825 13.6675 12.1781 14.0466C12.591 14.564 12.9237 14.8134 13.1764 14.7946C13.7614 14.751 14.2993 14.3433 14.7901 13.5715C15.2572 12.8415 15.4353 12.1798 15.3243 11.5864ZM24.2377 12.1666C23.5847 13.9934 22.5526 15.1265 21.1413 15.5657C20.9714 15.6185 20.8001 15.6513 20.6272 15.6641C19.8693 15.7205 19.0741 15.3652 18.2415 14.5982C17.6814 14.0783 17.3682 13.373 17.3019 12.4821C17.2287 11.4981 17.4426 10.4193 17.9436 9.24556C18.1606 8.74809 18.4357 8.31314 18.769 7.94072C19.1506 7.49786 19.5275 7.26258 19.8998 7.23487C20.1125 7.21905 20.3179 7.28399 20.5159 7.42969C20.714 7.5754 21.2284 7.75105 22.0593 7.95663C22.7133 8.12189 23.1921 8.44726 23.4957 8.93275C24.0273 9.78899 24.3169 10.5362 24.3644 11.1745C24.3911 11.5335 24.3489 11.8642 24.2377 12.1666ZM22.5501 11.0487C22.3848 10.085 22.0824 9.52591 21.6431 9.37141C21.5746 9.34977 21.5138 9.34092 21.4606 9.34488C21.3011 9.35675 21.1115 9.50455 20.892 9.78829C20.6488 10.1139 20.456 10.3087 20.3137 10.3728C20.2236 10.4196 20.0877 10.3896 19.9059 10.2828C19.7242 10.176 19.6067 10.1246 19.5535 10.1285C19.5136 10.1315 19.4814 10.1473 19.4568 10.1759C19.0211 10.6094 18.8344 11.245 18.8967 12.0827C18.9392 12.6544 19.1083 13.1298 19.4039 13.509C19.8168 14.0264 20.1495 14.2758 20.4022 14.257C20.9872 14.2134 21.5251 13.8057 22.0159 13.0338C22.483 12.3038 22.6611 11.6421 22.5501 11.0487ZM30.4588 11.6035C30.3486 11.9192 30.245 12.2344 30.1481 12.5491C30.0153 12.92 29.8637 13.2187 29.6934 13.4453C29.3197 13.9946 28.9456 14.5371 28.571 15.0731C28.1246 15.7213 27.7108 16.18 27.3297 16.449C27.2086 16.6184 27.0747 16.7955 26.928 16.9803C26.7813 17.165 26.6282 17.2633 26.4686 17.2752C26.3889 17.2811 26.2943 17.2681 26.185 17.2361C26.0756 17.2041 25.9525 17.1665 25.8156 17.1232C25.6919 17.0789 25.5991 16.9989 25.537 16.8832C25.4555 16.3277 25.3911 15.7308 25.3436 15.0926C25.2951 14.4411 25.2495 13.4685 25.2067 12.1747C25.1639 10.881 25.1183 9.90837 25.0698 9.25684C25.0055 8.39256 24.9134 7.60389 24.7935 6.89082C24.7792 6.87851 24.6216 6.73648 24.3206 6.46473C24.1349 6.30474 24.0366 6.15161 24.0257 6.00535C24.0208 5.93887 24.0291 5.87139 24.0507 5.80293C24.1054 5.63843 24.2447 5.53447 24.4688 5.49106C24.6396 5.4516 24.811 5.4188 24.9829 5.39264C26.1176 5.54888 27.3342 6.08676 28.6327 7.00628C28.9716 7.24847 29.2516 7.5084 29.4728 7.78609C30.1813 8.68266 30.5662 9.54314 30.6276 10.3675C30.6592 10.793 30.603 11.205 30.4588 11.6035ZM28.864 9.5762C28.682 8.74742 27.9157 8.06239 26.5652 7.5211C26.6373 9.74856 26.7858 12.104 27.0107 14.5875C28.4014 12.9732 29.0463 11.4879 28.9454 10.1317C28.9316 9.94554 28.9044 9.76037 28.864 9.5762ZM43.6616 2.89984C43.608 4.69543 43.5616 6.49718 43.5223 8.30508C43.4545 10.4493 43.4736 12.2329 43.5794 13.6556C43.614 14.121 43.6615 14.5787 43.7217 15.0288C43.7508 15.2406 43.6849 15.4327 43.5239 15.6051C43.3762 15.7765 43.196 15.8701 42.9833 15.886C42.5711 15.9166 42.2046 15.6631 41.8838 15.1254C40.9092 13.5267 39.6582 10.9992 38.1309 7.54301C38.0983 7.46521 38.0621 7.42779 38.0222 7.43076C37.9292 7.43769 37.8762 7.53521 37.8635 7.72334C37.7789 9.64157 37.8148 11.6511 37.9711 13.752C38.0463 14.7625 38.1496 15.791 38.2809 16.8375C38.3229 17.2221 38.2297 17.4964 38.0012 17.6605C37.915 17.7605 37.8188 17.8145 37.7124 17.8224C37.6193 17.8293 37.4967 17.7983 37.3445 17.7294C37.1381 17.6512 37.0074 17.6008 36.9522 17.5781C36.7754 17.5378 36.6571 17.3862 36.5975 17.1232C36.5683 16.9114 36.5387 16.693 36.5086 16.468C36.4133 15.7263 36.3355 14.95 36.2751 14.1389C36.1703 12.7294 36.119 10.9617 36.1212 8.83568C36.1345 5.59911 36.1415 3.80698 36.1424 3.4593C36.1339 3.16578 36.369 3.00122 36.8477 2.9656C37.0717 2.92219 37.4165 3.06366 37.882 3.39002C38.3679 4.16946 38.991 5.44674 39.7515 7.22188C40.4794 8.91921 41.123 10.2017 41.6823 11.0692C41.7502 9.28594 41.8638 6.59007 42.0231 2.98164C42.0432 2.71274 42.2262 2.56543 42.5719 2.5397C42.6915 2.5308 42.8326 2.54036 42.9952 2.56838C43.2119 2.60573 43.3406 2.62958 43.3815 2.6399C43.5185 2.6832 43.6118 2.76984 43.6616 2.89984ZM51.2605 4.46032C50.7834 4.69637 50.076 4.98298 49.1385 5.32014C48.2009 5.6573 47.4935 5.94391 47.0164 6.17996C46.9225 6.53458 46.8934 7.31221 46.9293 8.51286C47.1479 8.57681 47.3969 8.5984 47.6761 8.57762C47.8756 8.56278 48.1856 8.50629 48.6061 8.40815C49.0267 8.31001 49.3367 8.25352 49.5361 8.23868C49.9084 8.21098 50.2335 8.26701 50.5113 8.40679C50.7172 8.65887 50.8231 8.8248 50.8291 8.90458C50.836 8.99765 50.7949 9.07425 50.7058 9.13436C50.6802 9.14963 50.594 9.24964 50.4473 9.43436C50.3499 9.56195 50.2209 9.62503 50.0603 9.6236C49.786 9.71086 49.2771 9.78884 48.5335 9.85754C47.9095 9.91733 47.4168 10.0342 47.0554 10.2082C46.876 11.2109 46.8075 11.9982 46.8501 12.5699C46.8788 12.9555 46.9547 13.2574 47.0779 13.4755C47.7355 13.8678 48.833 13.9733 50.3705 13.7921C50.4768 13.7842 50.5864 13.7292 50.6991 13.6272C50.8109 13.512 50.9066 13.4514 50.9864 13.4454C51.3528 13.3379 51.6196 13.5989 51.7867 14.2282C51.8424 14.438 51.8169 14.6337 51.7101 14.8155C51.6176 15.0096 51.4654 15.1212 51.2537 15.1503C49.6487 15.3232 48.2432 15.3007 47.037 15.083C46.6578 15.0176 46.3034 14.8367 45.9739 14.5404C45.6443 14.244 45.4447 13.8979 45.3752 13.5019C45.1694 12.354 45.0922 11.3169 45.1437 10.3905C44.7526 10.1656 44.568 9.93197 44.5901 9.68966C44.5945 9.569 44.6863 9.45521 44.8656 9.34828C45.0571 9.22707 45.1622 9.11229 45.1809 9.00394C45.1996 8.89559 45.2057 8.26004 45.1995 7.0973C44.444 7.00644 44.0575 6.75442 44.0402 6.34124C44.0248 5.95465 44.2347 5.63151 44.67 5.37183C45.0826 5.16732 45.4952 4.96281 45.9079 4.75829C46.3943 4.46807 47.0025 4.19553 47.7322 3.94068C48.3576 3.72033 48.9901 3.50614 49.6298 3.29811C49.6953 3.27987 49.7746 3.26728 49.8676 3.26036C50.2266 3.23365 50.6559 3.3421 51.1553 3.58571C51.1726 3.63791 51.2132 3.73516 51.2773 3.87746C51.3414 4.01977 51.3759 4.12416 51.3808 4.19065C51.3887 4.29702 51.3486 4.38691 51.2605 4.46032ZM59.8886 3.51753C60.2053 3.64104 60.374 3.84241 60.3948 4.12164C60.4086 4.30779 60.3476 4.56636 60.2118 4.89735C60.044 5.33768 59.9555 5.58493 59.9461 5.63911C59.7002 6.6468 59.5057 8.16542 59.3626 10.195C59.2327 12.2235 59.0567 13.7207 58.8344 14.6865C58.7744 14.9584 58.5582 15.1082 58.1859 15.1359C58.0131 15.1488 57.8577 15.1269 57.7198 15.0703C57.209 14.8543 56.82 14.3885 56.5529 13.673C56.5346 13.6075 56.3589 12.9521 56.0255 11.7067C55.8564 11.0508 55.6904 10.3479 55.5277 9.59786C55.3692 9.98402 55.192 10.9264 54.996 12.4251C54.825 13.7214 54.5729 14.5557 54.2396 14.9281C54.1412 15.0424 53.956 15.0696 53.6841 15.0096C53.2813 14.9861 52.9975 14.7665 52.8329 14.3509C52.7254 13.9845 52.618 13.6182 52.5105 13.2518C52.1999 12.3123 51.8963 10.8374 51.5997 8.82719C51.3163 6.816 51.0204 5.35393 50.7118 4.44098C50.66 4.28439 50.6686 4.12999 50.7375 3.97779C50.8064 3.8256 50.9135 3.73741 51.0587 3.71323C51.1631 3.67872 51.2685 3.65751 51.3749 3.64959C51.7472 3.62189 52.0454 3.76683 52.2696 4.0844C52.5655 5.18549 52.9799 7.34068 53.5128 10.55C53.6023 10.316 53.6908 9.88829 53.7783 9.26675C53.8781 8.63093 53.984 8.16846 54.0962 7.87934C54.1783 7.36516 54.2537 6.85148 54.3225 6.3383C54.4366 5.71478 54.7462 5.38423 55.2515 5.34664C55.3845 5.33674 55.5322 5.3458 55.6947 5.37382C55.714 5.45261 55.7773 5.4947 55.8846 5.50008C55.992 5.50546 56.0533 5.52096 56.0686 5.54656C56.4096 6.17633 56.6938 7.03093 56.9212 8.11037C57.262 9.63595 57.4679 10.5164 57.5389 10.7518C57.6635 9.55259 57.7954 8.35952 57.9344 7.1726C58.1117 5.78228 58.3876 4.63866 58.7621 3.74173C58.8423 3.56195 59.0287 3.46118 59.3212 3.43941C59.5339 3.42358 59.7231 3.44962 59.8886 3.51753ZM64.8913 1.34034C64.9111 1.60627 64.7356 1.8533 64.3648 2.08144C64.2624 2.14254 64.1499 2.1576 64.0272 2.12662C63.8371 2.08728 63.7354 2.06811 63.7221 2.06909C63.6423 2.07503 63.5655 2.12086 63.4917 2.20657C62.8271 2.97801 62.5334 3.8823 62.6105 4.91943C62.6392 5.30503 62.7258 5.65959 62.8702 5.9831C62.9343 6.1254 63.5162 7.11829 64.616 8.96177C65.3492 10.1908 65.749 11.2507 65.8153 12.1416C65.8697 12.8729 65.7426 13.5909 65.434 14.2958C65.3312 14.5307 65.0538 14.8455 64.6018 15.2401C64.237 15.548 63.9017 15.7134 63.5958 15.7361C63.4762 15.745 63.3617 15.7335 63.2523 15.7015C62.8406 15.5584 62.6248 15.3538 62.605 15.0879C62.5931 14.9283 62.6785 14.7281 62.8612 14.4872C62.9094 14.4168 63.0327 14.3675 63.2312 14.3393C63.4297 14.3112 63.5567 14.2215 63.6123 14.0703C63.848 13.4645 63.9431 12.8558 63.8976 12.2441C63.8333 11.3798 63.3081 10.1621 62.3222 8.59095C61.3485 7.00549 60.8251 5.72078 60.7519 4.73684C60.6915 3.92574 60.7972 3.18921 61.0688 2.52723C61.3734 1.76921 61.8462 1.2059 62.4873 0.837319C62.7823 0.668302 63.076 0.572912 63.3685 0.551147C63.927 0.509596 64.3572 0.631344 64.6592 0.916389C64.803 1.05276 64.8804 1.19407 64.8913 1.34034ZM70.1559 1.24946C70.1454 2.18616 69.931 3.88675 69.5127 6.35125C69.1504 8.49069 69.0392 10.2304 69.179 11.5704C69.1879 11.6901 69.1232 11.8085 68.9848 11.9258C68.8588 12.0287 68.735 12.0714 68.6133 12.0537C67.9253 11.9712 67.5416 11.6655 67.4621 11.1366C67.428 10.8584 67.4006 10.5796 67.3798 10.3004C67.2868 9.05051 67.3725 7.50656 67.6369 5.66855C68.0496 2.95043 68.2693 1.40989 68.2958 1.04692C68.3105 0.885384 68.4018 0.764943 68.5697 0.6856C68.7376 0.606256 68.9033 0.587241 69.0668 0.628556C69.2978 0.67822 69.5288 0.727885 69.7598 0.77755C70.0204 0.865125 70.1524 1.02243 70.1559 1.24946ZM69.1265 13.5598C69.1669 13.7439 69.1537 13.9254 69.0868 14.1042C69.0208 14.2963 68.928 14.3968 68.8084 14.4057C68.703 14.4269 68.6257 14.4661 68.5764 14.5232C68.5272 14.5804 68.4755 14.6043 68.4213 14.5949C67.6968 14.3815 67.2722 14.0654 67.1475 13.6469C67.0937 13.4637 67.2062 13.2681 67.4849 13.0602C67.7626 12.839 67.9617 12.7306 68.0824 12.735C68.2971 12.7457 68.5101 12.8235 68.7215 12.9682C68.9461 13.1119 69.0811 13.3091 69.1265 13.5598Z" fill="white"/>
</svg>
