<svg width="93" height="52" viewBox="0 0 93 52" fill="none" xmlns="http://www.w3.org/2000/svg">
<path d="M9.30653 31.9235C9.78697 33.2644 10.3789 35.4537 11.0822 38.4914C11.7581 41.3683 12.377 43.5387 12.9389 45.0025C13.1166 45.4656 13.3007 45.9005 13.4911 46.3073C13.5313 46.4118 13.5237 46.5261 13.4685 46.6502C13.419 46.7891 13.3345 46.8815 13.215 46.9274C12.7968 47.088 12.5061 47.1567 12.343 47.1336C11.6493 47.0229 11.1275 46.5119 10.7777 45.6008C10.7089 45.4215 10.6103 45.1423 10.4819 44.7631C10.3627 44.3633 10.2687 44.0738 10.1999 43.8945C10.0852 43.5958 9.94766 43.1258 9.78726 42.4847C9.62685 41.8436 9.48358 41.3588 9.35743 41.0302C9.15405 41.1254 8.8513 41.2073 8.4492 41.276C8.06203 41.3389 7.7863 41.4019 7.62199 41.465C7.4278 41.5395 7.25255 41.6411 7.09624 41.7696C7.19072 43.0873 7.6496 44.9077 8.47287 47.231C8.04528 47.6351 7.54374 47.8019 6.96828 47.7315C6.55591 47.6841 6.24652 47.3915 6.0401 46.8538C5.99423 46.7343 5.94149 46.5746 5.88189 46.3747C5.83149 46.1541 5.79769 46.0214 5.78049 45.9766C5.51567 45.1528 5.07392 43.4885 4.45524 40.9839C3.94084 38.8848 3.44968 37.2481 2.98176 36.0738C2.91869 35.9095 2.99058 35.7619 3.19744 35.6311C3.41923 35.4946 3.53647 35.3981 3.54914 35.3419C3.6789 35.412 3.9299 35.4185 4.30212 35.3613C4.60887 35.3121 4.83225 35.3806 4.97227 35.5668C5.23512 35.8944 5.45542 36.2897 5.63317 36.7527C5.75931 37.0813 5.90772 37.6242 6.07838 38.3813C6.25825 39.1178 6.41986 39.6727 6.56321 40.0462C6.79406 40.1118 7.04966 40.1079 7.33 40.0346C7.52071 39.9957 7.77751 39.9057 8.1004 39.7646C8.52211 39.5684 8.77778 39.4531 8.8674 39.4187C8.63878 37.707 8.18759 35.5494 7.51384 32.9459C7.3729 32.4002 7.45928 32.0671 7.77296 31.9467C8.53597 31.5681 9.04716 31.5604 9.30653 31.9235ZM18.5598 29.8883C18.0931 30.3245 17.3794 30.8984 16.4185 31.61C15.4577 32.3216 14.744 32.8955 14.2773 33.3317C14.292 33.7717 14.5274 34.6753 14.9837 36.0426C15.2571 36.0405 15.5507 35.9792 15.8644 35.8588C16.0884 35.7728 16.4251 35.6007 16.8744 35.3425C17.3238 35.0844 17.6605 34.9123 17.8845 34.8263C18.3028 34.6657 18.6957 34.6177 19.0632 34.6823C19.387 34.9008 19.5661 35.0548 19.6005 35.1444C19.6407 35.249 19.6199 35.3512 19.5383 35.4511C19.5141 35.4775 19.4497 35.6222 19.345 35.8852C19.2771 36.0655 19.1507 36.1826 18.9657 36.2365C18.6807 36.4316 18.1228 36.6971 17.2921 37.0332C16.5957 37.3176 16.07 37.6222 15.7148 37.9471C15.8553 39.1614 16.0488 40.0897 16.2954 40.732C16.4617 41.1652 16.6533 41.4858 16.8703 41.6939C17.7616 41.9173 19.0592 41.6591 20.7633 40.9193C20.8828 40.8734 20.9897 40.7724 21.084 40.6163C21.1725 40.4452 21.2616 40.3424 21.3513 40.308C21.7351 40.0578 22.1318 40.2654 22.5415 40.9308C22.6781 41.1526 22.7164 41.3864 22.6565 41.6322C22.6173 41.8872 22.481 42.068 22.2478 42.1747C20.4633 42.9283 18.8404 43.3884 17.3791 43.5552C16.9207 43.6112 16.451 43.5258 15.9698 43.2992C15.4886 43.0726 15.1396 42.7438 14.9228 42.3129C14.2895 41.065 13.8423 39.8999 13.5811 38.8176C13.0539 38.6943 12.7611 38.4897 12.7027 38.2036C12.666 38.0634 12.7322 37.9009 12.9011 37.7161C13.0793 37.5106 13.1604 37.3423 13.1444 37.2114C13.1284 37.0804 12.9158 36.348 12.5066 35.014C11.607 35.1708 11.0759 35.0148 10.913 34.546C10.7617 34.1071 10.8912 33.6632 11.3016 33.2143C11.7051 32.8366 12.1085 32.459 12.512 32.0813C12.9706 31.5796 13.5752 31.0562 14.3257 30.511C14.9681 30.0416 15.6209 29.5768 16.2841 29.1166C16.353 29.073 16.4398 29.0311 16.5443 28.991C16.9476 28.8362 17.4784 28.8124 18.1365 28.9196C18.1744 28.9737 18.2547 29.0714 18.3776 29.2127C18.5004 29.3541 18.5761 29.4621 18.6048 29.5368C18.6507 29.6563 18.6357 29.7735 18.5598 29.8883ZM26.3636 26.8927C25.8969 27.3289 25.1832 27.9028 24.2224 28.6144C23.2616 29.326 22.5479 29.8999 22.0812 30.3361C22.0958 30.7761 22.3313 31.6797 22.7876 33.047C23.061 33.0449 23.3545 32.9836 23.6682 32.8632C23.8923 32.7772 24.229 32.6051 24.6783 32.3469C25.1276 32.0887 25.4643 31.9167 25.6884 31.8306C26.1066 31.6701 26.4995 31.6221 26.8671 31.6867C27.1909 31.9052 27.37 32.0592 27.4044 32.1488C27.4445 32.2534 27.4238 32.3556 27.3421 32.4555C27.318 32.4819 27.2536 32.6266 27.1489 32.8896C27.081 33.0699 26.9545 33.187 26.7696 33.2409C26.4845 33.436 25.9267 33.7015 25.0959 34.0376C24.3996 34.322 23.8738 34.6266 23.5187 34.9515C23.6592 36.1658 23.8527 37.0941 24.0993 37.7364C24.2655 38.1696 24.4572 38.4902 24.6741 38.6983C25.5654 38.9217 26.8631 38.6635 28.5671 37.9237C28.6866 37.8778 28.7935 37.7768 28.8878 37.6206C28.9764 37.4495 29.0655 37.3468 29.1551 37.3124C29.539 37.0622 29.9357 37.2698 30.3454 37.9352C30.4819 38.157 30.5203 38.3908 30.4604 38.6366C30.4211 38.8916 30.2849 39.0724 30.0516 39.1791C28.2671 39.9326 26.6443 40.3928 25.183 40.5595C24.7246 40.6155 24.2548 40.5302 23.7736 40.3036C23.2925 40.077 22.9435 39.7482 22.7266 39.3173C22.0934 38.0694 21.6461 36.9043 21.3849 35.822C20.8577 35.6987 20.5649 35.4941 20.5065 35.208C20.4699 35.0678 20.536 34.9053 20.705 34.7205C20.8832 34.515 20.9643 34.3467 20.9483 34.2158C20.9323 34.0848 20.7197 33.3523 20.3105 32.0184C19.4109 32.1752 18.8797 32.0192 18.7169 31.5504C18.5656 31.1115 18.6951 30.6676 19.1055 30.2187C19.5089 29.841 19.9124 29.4633 20.3158 29.0857C20.7745 28.584 21.3791 28.0606 22.1296 27.5154C22.772 27.046 23.4248 26.5812 24.0879 26.121C24.1569 26.0774 24.2436 26.0355 24.3482 25.9954C24.7515 25.8405 25.2822 25.8168 25.9404 25.924C25.9782 25.978 26.0586 26.0757 26.1814 26.2171C26.3042 26.3585 26.38 26.4665 26.4087 26.5412C26.4545 26.6607 26.4395 26.7779 26.3636 26.8927ZM32.9729 21.9905C33.2026 23.839 33.2762 26.3301 33.1937 29.4638C33.0891 33.1201 33.0794 35.6175 33.1647 36.9558C33.1818 37.2235 33.2591 37.5365 33.3967 37.895C33.6009 38.3822 33.7213 38.6959 33.7579 38.8361C33.9138 39.3761 33.7378 39.7436 33.2299 39.9385C32.9875 40.0659 32.6767 40.0823 32.2977 39.9879C31.9394 39.9026 31.7247 39.7451 31.6536 39.5153C31.2798 38.4077 31.0774 37.0544 31.0463 35.4553C31.0506 34.0826 31.055 32.7098 31.0593 31.3371C28.9093 28.9061 27.2086 27.1767 25.9572 26.149C25.8837 26.0915 25.8326 26.0254 25.8039 25.9507C25.7409 25.7864 25.7731 25.6026 25.9008 25.3994C26.0376 25.1755 26.1957 25.0291 26.3749 24.9603C26.4048 24.9488 26.7201 24.922 27.321 24.8799C27.9123 25.3042 28.5816 25.887 29.3289 26.6285C29.9649 27.2584 30.5935 27.8912 31.2145 28.5268C31.1692 27.5159 31.1268 26.5125 31.0872 25.5165C31.0352 24.3539 31.0892 23.3563 31.2494 22.5236C31.2887 22.2686 31.4577 22.0837 31.7564 21.9691C32.1746 21.8085 32.5801 21.8157 32.9729 21.9905ZM40.733 19.0117C40.9627 20.8602 41.0363 23.3513 40.9538 26.4849C40.8492 30.1413 40.8395 32.6386 40.9248 33.977C40.9419 34.2446 41.0192 34.5577 41.1568 34.9162C41.361 35.4034 41.4814 35.7171 41.518 35.8573C41.6739 36.3973 41.4979 36.7647 40.99 36.9597C40.7476 37.087 40.4368 37.1035 40.0578 37.0091C39.6995 36.9238 39.4848 36.7663 39.4137 36.5365C39.0399 35.4289 38.8375 34.0755 38.8064 32.4765C38.8107 31.1037 38.8151 29.731 38.8194 28.3583C36.6694 25.9273 34.9687 24.1979 33.7173 23.1701C33.6438 23.1126 33.5927 23.0466 33.564 22.9719C33.501 22.8076 33.5332 22.6238 33.6609 22.4205C33.7977 22.1966 33.9558 22.0503 34.135 21.9815C34.1649 21.97 34.4802 21.9432 35.0811 21.9011C35.6724 22.3254 36.3417 22.9082 37.089 23.6496C37.725 24.2796 38.3535 24.9123 38.9746 25.548C38.9293 24.5371 38.8869 23.5336 38.8473 22.5377C38.7953 21.3751 38.8493 20.3775 39.0095 19.5447C39.0488 19.2898 39.2177 19.1049 39.5165 18.9902C39.9347 18.8297 40.3402 18.8369 40.733 19.0117ZM48.9985 28.3327C49.3681 30.5902 49.562 31.8097 49.5803 31.9912C49.7689 33.3756 49.8232 34.5887 49.7433 35.6305C49.7225 35.8442 49.5776 36.0026 49.3088 36.1058C49.0399 36.209 48.7199 36.2462 48.3489 36.2172C47.9928 36.1825 47.7488 35.9934 47.617 35.6498C47.5367 35.4407 47.4904 35.1414 47.478 34.752C47.4851 34.4579 47.4847 34.1667 47.4768 33.8784C47.332 32.3401 47.2413 31.3895 47.2047 31.0265C47.0596 29.9339 46.8781 28.9924 46.6604 28.2019C46.5526 27.832 46.6085 27.5535 46.828 27.3664C46.9395 27.255 47.07 27.1707 47.2194 27.1133C47.5928 26.97 47.9822 26.9576 48.3876 27.0762C48.669 27.1395 48.8727 27.5584 48.9985 28.3327ZM56.162 12.7549C56.2766 13.0536 56.1604 13.3982 55.8132 13.7885C55.7167 13.8941 55.5926 13.9503 55.4409 13.9571C55.2089 13.9777 55.0854 13.9908 55.0704 13.9965C54.9808 14.0309 54.9084 14.1101 54.8532 14.2342C54.3562 15.3504 54.3313 16.4911 54.7786 17.6562C54.9448 18.0894 55.1669 18.4669 55.4447 18.7887C55.5675 18.9301 56.5795 19.8698 58.4806 21.608C59.7481 22.7667 60.5739 23.8465 60.9581 24.8473C61.2734 25.6688 61.3757 26.5379 61.2648 27.4545C61.2278 27.7601 61.0179 28.2177 60.635 28.8274C60.3222 29.3074 59.994 29.6133 59.6505 29.7452C59.516 29.7968 59.3805 29.8232 59.2438 29.8242C58.7211 29.802 58.4024 29.6416 58.2878 29.3428C58.2189 29.1636 58.2478 28.904 58.3744 28.5641C58.4055 28.4664 58.5302 28.3671 58.7485 28.2662C58.9669 28.1653 59.0818 28.0183 59.0934 27.8253C59.1548 27.0477 59.0536 26.3153 58.7899 25.6282C58.4172 24.6572 57.3927 23.4395 55.7165 21.9749C54.0496 20.4896 53.0039 19.1943 52.5796 18.089C52.2298 17.1778 52.0966 16.2949 52.1799 15.4403C52.2678 14.464 52.6164 13.6532 53.2256 13.008C53.5061 12.7118 53.8107 12.5006 54.1393 12.3745C54.7667 12.1337 55.3031 12.1248 55.7487 12.348C55.9611 12.4549 56.0989 12.5906 56.162 12.7549ZM65.8129 11.7495C65.3463 12.1857 64.6325 12.7596 63.6717 13.4712C62.7109 14.1828 61.9972 14.7567 61.5305 15.1929C61.5452 15.6329 61.7806 16.5365 62.2369 17.9038C62.5103 17.9017 62.8039 17.8404 63.1175 17.72C63.3416 17.634 63.6783 17.4619 64.1276 17.2037C64.5769 16.9456 64.9136 16.7735 65.1377 16.6875C65.5559 16.5269 65.9488 16.4789 66.3164 16.5435C66.6402 16.762 66.8193 16.916 66.8537 17.0056C66.8938 17.1102 66.8731 17.2124 66.7915 17.3123C66.7673 17.3387 66.7029 17.4834 66.5982 17.7464C66.5303 17.9267 66.4039 18.0438 66.2189 18.0977C65.9339 18.2928 65.376 18.5583 64.5452 18.8944C63.8489 19.1788 63.3232 19.4835 62.968 19.8083C63.1085 21.0226 63.302 21.9509 63.5486 22.5932C63.7149 23.0264 63.9065 23.347 64.1235 23.5551C65.0147 23.7785 66.3124 23.5203 68.0165 22.7805C68.136 22.7346 68.2429 22.6336 68.3372 22.4775C68.4257 22.3064 68.5148 22.2036 68.6044 22.1692C68.9883 21.919 69.385 22.1266 69.7947 22.792C69.9312 23.0138 69.9696 23.2476 69.9097 23.4934C69.8705 23.7484 69.7342 23.9292 69.5009 24.0359C67.7165 24.7895 66.0936 25.2496 64.6323 25.4164C64.1739 25.4724 63.7041 25.387 63.223 25.1604C62.7418 24.9338 62.3928 24.605 62.176 24.1741C61.5427 22.9262 61.0954 21.7611 60.8342 20.6788C60.307 20.5555 60.0142 20.3509 59.9558 20.0648C59.9192 19.9246 59.9853 19.7621 60.1543 19.5773C60.3325 19.3718 60.4136 19.2036 60.3976 19.0726C60.3816 18.9416 60.169 18.2092 59.7598 16.8752C58.8602 17.032 58.329 16.876 58.1662 16.4072C58.0149 15.9683 58.1444 15.5244 58.5548 15.0755C58.9582 14.6978 59.3617 14.3202 59.7651 13.9425C60.2238 13.4408 60.8284 12.9174 61.5789 12.3722C62.2213 11.9028 62.8741 11.438 63.5372 10.9778C63.6062 10.9342 63.6929 10.8923 63.7975 10.8522C64.2008 10.6974 64.7315 10.6736 65.3897 10.7809C65.4276 10.8349 65.5079 10.9326 65.6307 11.0739C65.7536 11.2153 65.8293 11.3233 65.858 11.398C65.9038 11.5175 65.8888 11.6347 65.8129 11.7495ZM72.8907 7.13026C72.4114 9.31943 72.0959 11.3772 71.9441 13.3035C72.2897 13.6679 73.1031 14.3582 74.3844 15.3745C75.4395 16.2035 76.1972 16.9495 76.6574 17.6126C76.5437 17.6734 76.4568 17.8267 76.3969 18.0725C76.3313 18.3034 76.2284 18.4371 76.0882 18.4738C75.5184 18.6411 74.9728 18.5592 74.4515 18.228C74.1805 18.0579 73.7419 17.6521 73.1358 17.0107C72.579 16.4532 72.1146 16.0916 71.7425 15.9259C71.5122 16.8884 71.4165 18.3134 71.4554 20.2008C71.5093 22.0824 71.4303 23.4838 71.2183 24.405C70.4404 24.7893 69.9286 24.8401 69.6829 24.5573C69.5865 24.4401 69.5125 24.3142 69.4609 24.1798C69.3692 23.9408 69.3384 23.5927 69.3685 23.1356C69.4103 22.4854 69.4318 22.1172 69.433 22.0311C69.3292 19.2603 69.4871 16.5689 69.907 13.957C69.0747 13.1282 67.8777 12.3537 66.3159 11.6336C66.2125 11.5876 66.1465 11.5272 66.1178 11.4525C66.0089 11.1687 66.1469 10.8587 66.532 10.5223C66.6733 10.3995 66.8262 10.3066 66.9905 10.2435C67.4237 10.0772 67.9583 10.1976 68.5945 10.6047C69.5073 11.1969 69.9948 11.5068 70.0568 11.5344C70.0913 11.4011 70.2079 10.6109 70.4064 9.16361C70.5449 8.18498 70.7298 7.3942 70.9611 6.79127C71.2254 6.58697 71.5931 6.42868 72.0641 6.31641C72.465 6.33391 72.7286 6.50697 72.8547 6.83559C72.8948 6.94015 72.9068 7.03837 72.8907 7.13026ZM80.0729 3.91054C80.3026 5.759 80.3762 8.25008 80.2937 11.3838C80.1891 15.0401 80.1794 17.5375 80.2647 18.8758C80.2818 19.1435 80.3591 19.4565 80.4967 19.815C80.7009 20.3022 80.8213 20.6159 80.8579 20.7561C81.0138 21.2961 80.8378 21.6636 80.33 21.8585C80.0875 21.9859 79.7767 22.0023 79.3977 21.9079C79.0394 21.8226 78.8247 21.6651 78.7536 21.4353C78.3798 20.3277 78.1774 18.9744 78.1463 17.3753C78.1506 16.0026 78.155 14.6298 78.1593 13.2571C76.0093 10.8261 74.3086 9.09674 73.0572 8.06895C72.9837 8.01147 72.9326 7.94538 72.9039 7.8707C72.8409 7.70639 72.8732 7.52261 73.0008 7.31937C73.1376 7.09545 73.2957 6.94909 73.4749 6.88029C73.5048 6.86882 73.8202 6.84203 74.421 6.79992C75.0123 7.22419 75.6816 7.80704 76.429 8.54846C77.0649 9.17838 77.6935 9.81117 78.3145 10.4468C78.2692 9.43591 78.2268 8.43247 78.1872 7.43649C78.1352 6.27394 78.1892 5.2763 78.3495 4.44357C78.3887 4.18858 78.5577 4.00374 78.8564 3.88906C79.2747 3.72851 79.6802 3.73567 80.0729 3.91054ZM85.4752 1.88822C85.7869 2.96823 86.1285 4.99654 86.4999 7.97315C86.8233 10.5569 87.2969 12.5945 87.9209 14.0859C87.9725 14.2204 87.9391 14.3789 87.8206 14.5614C87.7114 14.7233 87.5838 14.8151 87.4379 14.8369C86.6188 14.9799 86.0721 14.7613 85.798 14.181C85.6626 13.8731 85.5347 13.5623 85.4143 13.2486C84.8753 11.8445 84.44 10.0407 84.1083 7.83719C83.6429 4.57103 83.3627 2.72483 83.2676 2.29859C83.2287 2.10788 83.292 1.93791 83.4575 1.78868C83.623 1.63945 83.8068 1.56031 84.009 1.55125C84.2916 1.52846 84.5742 1.50567 84.8568 1.48288C85.1865 1.49344 85.3926 1.62855 85.4752 1.88822ZM88.5483 16.3901C88.6584 16.5878 88.706 16.8009 88.6909 17.0295C88.6815 17.273 88.6097 17.4206 88.4752 17.4722C88.3615 17.533 88.2862 17.6047 88.2494 17.6874C88.2125 17.7701 88.1614 17.8154 88.0959 17.8234C87.1896 17.8286 86.5924 17.6122 86.3043 17.1744C86.1792 16.9825 86.2409 16.7189 86.4892 16.3836C86.7318 16.0334 86.9232 15.84 87.0634 15.8033C87.3138 15.7414 87.5855 15.7571 87.8784 15.8503C88.1862 15.9379 88.4095 16.1178 88.5483 16.3901Z" fill="white"/>
</svg>
